<?xml version="1.0" encoding="UTF-8" standalone="no"?><!DOCTYPE svg PUBLIC "-//W3C//DTD SVG 1.1//EN" "http://www.w3.org/Graphics/SVG/1.1/DTD/svg11.dtd"><svg width="17px" height="20px" version="1.1" xmlns="http://www.w3.org/2000/svg" xmlns:xlink="http://www.w3.org/1999/xlink" xml:space="preserve" style="fill-rule:evenodd;clip-rule:evenodd;stroke-linejoin:round;stroke-miterlimit:1.41421;"><path d="M14.8,8.24L14.346,7.639C14.882,7.057 15.15,6.566 15.15,6.165C15.15,5.524 14.475,5.002 13.121,4.601C11.722,4.2 10.614,3.77 9.797,3.308L9.833,17.052C9.833,17.474 9.809,17.764 9.763,17.924C9.576,18.506 9.05,18.997 8.187,19.398C7.324,19.799 6.182,20 4.758,20C1.586,20 0,19.207 0,17.624C0,16.942 0.502,16.37 1.505,15.91C2.507,15.449 3.697,15.218 5.073,15.218C6.333,15.218 7.546,15.649 8.712,16.511L8.712,0.03L9.763,0C10.019,0.602 10.305,1.017 10.619,1.248C10.935,1.479 11.535,1.714 12.422,1.955C15.407,2.737 16.9,3.799 16.9,5.143C16.9,6.025 16.201,7.057 14.8,8.24Z" style="fill:#1fef80;fill-rule:nonzero;"/></svg>