<?xml version="1.0" encoding="UTF-8" standalone="no"?><!DOCTYPE svg PUBLIC "-//W3C//DTD SVG 1.1//EN" "http://www.w3.org/Graphics/SVG/1.1/DTD/svg11.dtd"><svg width="23px" height="21px" version="1.1" xmlns="http://www.w3.org/2000/svg" xmlns:xlink="http://www.w3.org/1999/xlink" xml:space="preserve" style="fill-rule:evenodd;clip-rule:evenodd;stroke-linecap:round;stroke-linejoin:round;stroke-miterlimit:1.5;"><g><path d="M4.928,14.009L4.928,11.831" style="fill:none;stroke:#0085de;stroke-width:1px;"/><path d="M7.803,11.831L7.803,16.186" style="fill:none;stroke:#0085de;stroke-width:1px;"/><path d="M10.678,16.186L10.678,14.009" style="fill:none;stroke:#0085de;stroke-width:1px;"/><path d="M4.928,11.831L7.803,11.831" style="fill:none;stroke:#0085de;stroke-width:1px;"/><path d="M7.803,16.186L10.678,16.186" style="fill:none;stroke:#0085de;stroke-width:1px;"/></g><ellipse cx="12.037" cy="10.497" rx="10" ry="9.997" style="fill:none;stroke:#0085de;stroke-width:1px;"/><path d="M2.037,9.126L0.5,11.652L3.574,11.652L2.037,9.126Z" style="fill:#0085de;stroke:#0085de;stroke-width:1px;"/><g><path d="M12.547,13.376L12.547,10.567" style="fill:none;stroke:#0085de;stroke-width:1px;"/><path d="M12.547,10.567L18.296,16.186" style="fill:none;stroke:#0085de;stroke-width:1px;"/><path d="M18.296,16.186L18.296,13.376" style="fill:none;stroke:#0085de;stroke-width:1px;"/></g><path d="M12.422,6.637L13.859,3.768L16.734,9.506L18.171,6.637" style="fill:none;stroke:#0085de;stroke-width:1px;"/><path d="M4.928,7.475C5.851,3.659 6.845,3.666 7.803,7.475C8.691,11.071 9.657,11.549 10.678,7.475" style="fill:none;stroke:#0085de;stroke-width:0.8px;"/></svg>