<?xml version="1.0" encoding="UTF-8"?>
<svg width="512px" height="512px" viewBox="0 0 512 512" version="1.1" xmlns="http://www.w3.org/2000/svg" xmlns:xlink="http://www.w3.org/1999/xlink">
    <!-- Generator: Sketch 43.2 (39069) - http://www.bohemiancoding.com/sketch -->
    <title>Audulus_logo</title>
    <desc>Created with Sketch.</desc>
    <defs></defs>
    <g id="Page-1" stroke="none" stroke-width="1" fill="none" fill-rule="evenodd">
        <g id="Audulus_logo">
            <g id="Group">
                <g id="circle" transform="translate(72.000000, 72.000000)" fill="#090B0D">
                    <path d="M213.069,29.442 C213.069,45.494 200.057,58.511 184,58.511 C167.943,58.511 154.932,45.493 154.932,29.442 C154.932,13.385 167.943,0.367 184,0.367 C200.057,0.367 213.069,13.385 213.069,29.442 L213.069,29.442 Z" id="Shape" stroke="#0085DE" stroke-width="10.2565"></path>
                    <path d="M208.259,29.519 C208.259,45.571 195.247,58.588 179.191,58.588 C163.133,58.588 150.122,45.57 150.122,29.519 C150.122,13.462 163.133,0.444 179.191,0.444 C195.247,0.443 208.259,13.461 208.259,29.519 L208.259,29.519 Z" id="Shape" stroke="#0184DD" stroke-width="10.2553"></path>
                    <path d="M203.486,29.738 C203.486,45.79 190.474,58.807 174.416,58.807 C158.359,58.807 145.348,45.79 145.348,29.738 C145.348,13.68 158.359,0.663 174.416,0.663 C190.475,0.663 203.486,13.68 203.486,29.738 L203.486,29.738 Z" id="Shape" stroke="#0284DD" stroke-width="10.2541"></path>
                    <path d="M198.751,30.1 C198.751,46.152 185.739,59.169 169.682,59.169 C153.624,59.169 140.614,46.152 140.614,30.1 C140.614,14.043 153.625,1.025 169.682,1.025 C185.739,1.025 198.751,14.043 198.751,30.1 L198.751,30.1 Z" id="Shape" stroke="#0383DC" stroke-width="10.2529"></path>
                    <path d="M194.058,30.604 C194.058,46.656 181.046,59.673 164.989,59.673 C148.932,59.673 135.921,46.655 135.921,30.604 C135.921,14.547 148.932,1.529 164.989,1.529 C181.046,1.529 194.058,14.546 194.058,30.604 L194.058,30.604 Z" id="Shape" stroke="#0483DC" stroke-width="10.2517"></path>
                    <path d="M189.407,31.247 C189.407,47.299 176.395,60.316 160.337,60.316 C144.28,60.316 131.269,47.298 131.269,31.247 C131.269,15.189 144.28,2.172 160.337,2.172 C176.396,2.172 189.407,15.189 189.407,31.247 L189.407,31.247 Z" id="Shape" stroke="#0582DB" stroke-width="10.2505"></path>
                    <path d="M184.802,32.027 C184.802,48.079 171.79,61.096 155.733,61.096 C139.676,61.096 126.665,48.079 126.665,32.027 C126.665,15.97 139.676,2.952 155.733,2.952 C171.79,2.952 184.802,15.97 184.802,32.027 L184.802,32.027 Z" id="Shape" stroke="#0682DA" stroke-width="10.2492"></path>
                    <path d="M180.244,32.941 C180.244,48.993 167.232,62.01 151.175,62.01 C135.117,62.01 122.106,48.993 122.106,32.941 C122.106,16.884 135.117,3.866 151.175,3.866 C167.232,3.866 180.244,16.884 180.244,32.941 L180.244,32.941 Z" id="Shape" stroke="#0781DA" stroke-width="10.248"></path>
                    <path d="M175.735,33.988 C175.735,50.04 162.723,63.058 146.666,63.058 C130.609,63.058 117.598,50.04 117.598,33.988 C117.598,17.931 130.609,4.913 146.666,4.913 C162.723,4.913 175.735,17.931 175.735,33.988 L175.735,33.988 Z" id="Shape" stroke="#0881D9" stroke-width="10.2468"></path>
                    <path d="M171.278,35.166 C171.278,51.218 158.266,64.235 142.209,64.235 C126.152,64.235 113.141,51.217 113.141,35.166 C113.141,19.109 126.152,6.091 142.209,6.091 C158.266,6.091 171.278,19.109 171.278,35.166 L171.278,35.166 Z" id="Shape" stroke="#0980D8" stroke-width="10.2456"></path>
                    <path d="M166.875,36.473 C166.875,52.525 153.863,65.542 137.806,65.542 C121.749,65.542 108.738,52.524 108.738,36.473 C108.738,20.415 121.749,7.398 137.806,7.398 C153.863,7.398 166.875,20.415 166.875,36.473 L166.875,36.473 Z" id="Shape" stroke="#0A80D8" stroke-width="10.2444"></path>
                    <path d="M162.528,37.905 C162.528,53.957 149.516,66.974 133.458,66.974 C117.401,66.974 104.39,53.957 104.39,37.905 C104.39,21.848 117.401,8.831 133.458,8.831 C149.516,8.831 162.528,21.848 162.528,37.905 L162.528,37.905 Z" id="Shape" stroke="#0B7FD7" stroke-width="10.2432"></path>
                    <path d="M158.238,39.461 C158.238,55.513 145.226,68.531 129.169,68.531 C113.112,68.531 100.101,55.513 100.101,39.461 C100.101,23.404 113.111,10.387 129.169,10.387 C145.227,10.387 158.238,23.405 158.238,39.461 L158.238,39.461 Z" id="Shape" stroke="#0C7FD7" stroke-width="10.242"></path>
                    <path d="M154.009,41.141 C154.009,57.193 140.997,70.21 124.94,70.21 C108.882,70.21 95.871,57.193 95.871,41.141 C95.871,25.084 108.882,12.067 124.94,12.067 C140.998,12.066 154.009,25.083 154.009,41.141 L154.009,41.141 Z" id="Shape" stroke="#0D7ED6" stroke-width="10.2408"></path>
                    <path d="M149.842,42.939 C149.842,58.991 136.83,72.008 120.773,72.008 C104.716,72.008 91.705,58.99 91.705,42.939 C91.705,26.882 104.716,13.865 120.773,13.865 C136.83,13.865 149.842,26.882 149.842,42.939 L149.842,42.939 Z" id="Shape" stroke="#0E7ED5" stroke-width="10.2396"></path>
                    <path d="M145.74,44.856 C145.74,60.908 132.728,73.926 116.671,73.926 C100.614,73.926 87.603,60.908 87.603,44.856 C87.603,28.799 100.614,15.781 116.671,15.781 C132.728,15.781 145.74,28.799 145.74,44.856 L145.74,44.856 Z" id="Shape" stroke="#0F7DD5" stroke-width="10.2384"></path>
                    <path d="M141.704,46.889 C141.704,62.941 128.692,75.958 112.635,75.958 C96.577,75.958 83.566,62.94 83.566,46.889 C83.566,30.831 96.577,17.814 112.635,17.814 C128.692,17.813 141.704,30.831 141.704,46.889 L141.704,46.889 Z" id="Shape" stroke="#107CD4" stroke-width="10.2371"></path>
                    <path d="M137.736,49.035 C137.736,65.087 124.724,78.104 108.667,78.104 C92.61,78.104 79.599,65.087 79.599,49.035 C79.599,32.978 92.61,19.96 108.667,19.96 C124.724,19.96 137.736,32.978 137.736,49.035 L137.736,49.035 Z" id="Shape" stroke="#117CD3" stroke-width="10.2359"></path>
                    <path d="M133.839,51.292 C133.839,67.344 120.827,80.361 104.77,80.361 C88.713,80.361 75.702,67.343 75.702,51.292 C75.702,35.235 88.713,22.217 104.77,22.217 C120.827,22.217 133.839,35.234 133.839,51.292 L133.839,51.292 Z" id="Shape" stroke="#127BD3" stroke-width="10.2347"></path>
                    <path d="M130.016,53.658 C130.016,69.71 117.004,82.727 100.947,82.727 C84.89,82.727 71.879,69.709 71.879,53.658 C71.879,37.601 84.89,24.583 100.947,24.583 C117.004,24.583 130.016,37.601 130.016,53.658 L130.016,53.658 Z" id="Shape" stroke="#137BD2" stroke-width="10.2335"></path>
                    <path d="M126.268,56.131 C126.268,72.183 113.256,85.2 97.199,85.2 C81.142,85.2 68.131,72.183 68.131,56.131 C68.131,40.073 81.142,27.056 97.199,27.056 C113.256,27.056 126.268,40.074 126.268,56.131 L126.268,56.131 Z" id="Shape" stroke="#147AD2" stroke-width="10.2323"></path>
                    <path d="M122.596,58.709 C122.596,74.761 109.584,87.778 93.527,87.778 C77.47,87.778 64.459,74.761 64.459,58.709 C64.459,42.652 77.47,29.634 93.527,29.634 C109.584,29.634 122.596,42.652 122.596,58.709 L122.596,58.709 Z" id="Shape" stroke="#157AD1" stroke-width="10.2311"></path>
                    <path d="M119.004,61.391 C119.004,77.443 105.992,90.46 89.935,90.46 C73.878,90.46 60.867,77.442 60.867,61.391 C60.867,45.333 73.878,32.316 89.935,32.316 C105.992,32.316 119.004,45.333 119.004,61.391 L119.004,61.391 Z" id="Shape" stroke="#1679D0" stroke-width="10.2299"></path>
                    <path d="M115.494,64.172 C115.494,80.224 102.482,93.241 86.425,93.241 C70.368,93.241 57.357,80.223 57.357,64.172 C57.357,48.115 70.368,35.097 86.425,35.097 C102.482,35.097 115.494,48.115 115.494,64.172 L115.494,64.172 Z" id="Shape" stroke="#1779D0" stroke-width="10.2287"></path>
                    <path d="M112.067,67.053 C112.067,83.105 99.055,96.122 82.998,96.122 C66.941,96.122 53.929,83.105 53.929,67.053 C53.929,50.996 66.94,37.978 82.998,37.978 C99.056,37.978 112.067,50.996 112.067,67.053 L112.067,67.053 Z" id="Shape" stroke="#1878CF" stroke-width="10.2275"></path>
                    <path d="M108.726,70.03 C108.726,86.082 95.714,99.099 79.657,99.099 C63.599,99.099 50.588,86.082 50.588,70.03 C50.588,53.973 63.599,40.955 79.657,40.955 C95.714,40.955 108.726,53.973 108.726,70.03 L108.726,70.03 Z" id="Shape" stroke="#1978CE" stroke-width="10.2263"></path>
                    <path d="M105.472,73.101 C105.472,89.153 92.46,102.17 76.403,102.17 C60.346,102.17 47.335,89.152 47.335,73.101 C47.335,57.044 60.346,44.026 76.403,44.026 C92.46,44.026 105.472,57.044 105.472,73.101 L105.472,73.101 Z" id="Shape" stroke="#1A77CE" stroke-width="10.225"></path>
                    <path d="M102.309,76.264 C102.309,92.316 89.297,105.333 73.24,105.333 C57.183,105.333 44.172,92.315 44.172,76.264 C44.172,60.206 57.183,47.189 73.24,47.189 C89.297,47.189 102.309,60.207 102.309,76.264 L102.309,76.264 Z" id="Shape" stroke="#1B77CD" stroke-width="10.2238"></path>
                    <path d="M99.238,79.518 C99.238,95.57 86.225,108.587 70.168,108.587 C54.111,108.587 41.1,95.57 41.1,79.518 C41.1,63.461 54.112,50.444 70.168,50.444 C86.226,50.443 99.238,63.461 99.238,79.518 L99.238,79.518 Z" id="Shape" stroke="#1C76CD" stroke-width="10.2226"></path>
                    <path d="M96.261,82.858 C96.261,98.91 83.249,111.927 67.192,111.927 C51.135,111.927 38.125,98.91 38.125,82.858 C38.125,66.801 51.135,53.784 67.192,53.784 C83.249,53.784 96.261,66.802 96.261,82.858 L96.261,82.858 Z" id="Shape" stroke="#1D76CC" stroke-width="10.2214"></path>
                    <path d="M93.381,86.286 C93.381,102.338 80.369,115.355 64.312,115.355 C48.255,115.355 35.244,102.337 35.244,86.286 C35.244,70.229 48.255,57.212 64.312,57.212 C80.369,57.212 93.381,70.229 93.381,86.286 L93.381,86.286 Z" id="Shape" stroke="#1E75CB" stroke-width="10.2202"></path>
                    <path d="M90.599,89.796 C90.599,105.848 77.587,118.865 61.529,118.865 C45.472,118.865 32.461,105.847 32.461,89.796 C32.461,73.739 45.472,60.721 61.529,60.721 C77.587,60.721 90.599,73.739 90.599,89.796 L90.599,89.796 Z" id="Shape" stroke="#1F74CB" stroke-width="10.219"></path>
                    <path d="M87.918,93.389 C87.918,109.441 74.906,122.458 58.848,122.458 C42.791,122.458 29.78,109.441 29.78,93.389 C29.78,77.331 42.791,64.314 58.848,64.314 C74.906,64.313 87.918,77.331 87.918,93.389 L87.918,93.389 Z" id="Shape" stroke="#2074CA" stroke-width="10.2178"></path>
                    <path d="M85.34,97.06 C85.34,113.112 72.328,126.129 56.271,126.129 C40.214,126.129 27.203,113.112 27.203,97.06 C27.203,81.003 40.214,67.985 56.271,67.985 C72.328,67.985 85.34,81.002 85.34,97.06 L85.34,97.06 Z" id="Shape" stroke="#2173C9" stroke-width="10.2166"></path>
                    <path d="M82.866,100.808 C82.866,116.86 69.854,129.877 53.797,129.877 C37.74,129.877 24.729,116.859 24.729,100.808 C24.729,84.751 37.74,71.733 53.797,71.733 C69.854,71.733 82.866,84.751 82.866,100.808 L82.866,100.808 Z" id="Shape" stroke="#2273C9" stroke-width="10.2154"></path>
                    <path d="M80.5,104.632 C80.5,120.684 67.488,133.701 51.431,133.701 C35.374,133.701 22.362,120.683 22.362,104.632 C22.362,88.575 35.373,75.557 51.431,75.557 C67.489,75.557 80.5,88.575 80.5,104.632 L80.5,104.632 Z" id="Shape" stroke="#2372C8" stroke-width="10.2142"></path>
                    <path d="M78.243,108.529 C78.243,124.58 65.231,137.598 49.174,137.598 C33.116,137.598 20.105,124.58 20.105,108.529 C20.105,92.472 33.116,79.454 49.174,79.454 C65.231,79.454 78.243,92.472 78.243,108.529 L78.243,108.529 Z" id="Shape" stroke="#2472C8" stroke-width="10.2129"></path>
                    <path d="M76.098,112.496 C76.098,128.548 63.086,141.566 47.029,141.566 C30.972,141.566 17.961,128.548 17.961,112.496 C17.961,96.439 30.972,83.421 47.029,83.421 C63.086,83.421 76.098,96.438 76.098,112.496 L76.098,112.496 Z" id="Shape" stroke="#2571C7" stroke-width="10.2117"></path>
                    <path d="M74.065,116.532 C74.065,132.584 61.053,145.601 44.996,145.601 C28.939,145.601 15.928,132.583 15.928,116.532 C15.928,100.474 28.939,87.457 44.996,87.457 C61.053,87.457 74.065,100.474 74.065,116.532 L74.065,116.532 Z" id="Shape" stroke="#2671C6" stroke-width="10.2105"></path>
                    <path d="M72.149,120.634 C72.149,136.686 59.137,149.703 43.08,149.703 C27.022,149.703 14.012,136.685 14.012,120.634 C14.012,104.577 27.022,91.559 43.08,91.559 C59.137,91.56 72.149,104.577 72.149,120.634 L72.149,120.634 Z" id="Shape" stroke="#2770C6" stroke-width="10.2093"></path>
                    <path d="M70.35,124.802 C70.35,140.854 57.338,153.871 41.28,153.871 C25.222,153.871 12.212,140.854 12.212,124.802 C12.212,108.745 25.222,95.727 41.28,95.727 C57.338,95.727 70.35,108.745 70.35,124.802 L70.35,124.802 Z" id="Shape" stroke="#2870C5" stroke-width="10.2081"></path>
                    <path d="M68.671,129.03 C68.671,145.082 55.659,158.1 39.602,158.1 C23.545,158.1 10.534,145.082 10.534,129.03 C10.534,112.973 23.545,99.956 39.602,99.956 C55.659,99.956 68.671,112.973 68.671,129.03 L68.671,129.03 Z" id="Shape" stroke="#296FC4" stroke-width="10.2069"></path>
                    <path d="M67.114,133.319 C67.114,149.371 54.102,162.388 38.045,162.388 C21.988,162.388 8.977,149.37 8.977,133.319 C8.977,117.262 21.988,104.244 38.045,104.244 C54.102,104.244 67.114,117.262 67.114,133.319 L67.114,133.319 Z" id="Shape" stroke="#2A6FC4" stroke-width="10.2057"></path>
                    <path d="M65.682,137.667 C65.682,153.719 52.67,166.736 36.612,166.736 C20.555,166.736 7.544,153.718 7.544,137.667 C7.544,121.609 20.555,108.592 36.612,108.592 C52.67,108.592 65.682,121.609 65.682,137.667 L65.682,137.667 Z" id="Shape" stroke="#2B6EC3" stroke-width="10.2045"></path>
                    <path d="M64.375,142.07 C64.375,158.122 51.363,171.139 35.306,171.139 C19.249,171.139 6.238,158.121 6.238,142.07 C6.238,126.013 19.248,112.996 35.306,112.996 C51.364,112.996 64.375,126.013 64.375,142.07 L64.375,142.07 Z" id="Shape" stroke="#2C6EC3" stroke-width="10.2033"></path>
                    <path d="M63.198,146.526 C63.198,162.578 50.186,175.596 34.129,175.596 C18.072,175.596 5.061,162.578 5.061,146.526 C5.061,130.469 18.072,117.452 34.129,117.452 C50.186,117.452 63.198,130.47 63.198,146.526 L63.198,146.526 Z" id="Shape" stroke="#2D6DC2" stroke-width="10.2021"></path>
                    <path d="M62.15,151.035 C62.15,167.087 49.138,180.104 33.081,180.104 C17.024,180.104 4.013,167.086 4.013,151.035 C4.013,134.978 17.024,121.961 33.081,121.961 C49.138,121.961 62.15,134.978 62.15,151.035 L62.15,151.035 Z" id="Shape" stroke="#2E6CC1" stroke-width="10.2008"></path>
                    <path d="M61.236,155.593 C61.236,171.644 48.224,184.662 32.167,184.662 C16.11,184.662 3.099,171.644 3.099,155.593 C3.099,139.536 16.11,126.518 32.167,126.518 C48.224,126.518 61.236,139.536 61.236,155.593 L61.236,155.593 Z" id="Shape" stroke="#2F6CC1" stroke-width="10.1996"></path>
                    <path d="M60.456,160.199 C60.456,176.251 47.445,189.268 31.388,189.268 C15.331,189.268 2.32,176.251 2.32,160.199 C2.32,144.141 15.331,131.124 31.388,131.124 C47.445,131.124 60.456,144.141 60.456,160.199 L60.456,160.199 Z" id="Shape" stroke="#306BC0" stroke-width="10.1984"></path>
                    <path d="M59.813,164.848 C59.813,180.9 46.801,193.918 30.744,193.918 C14.687,193.918 1.676,180.9 1.676,164.848 C1.676,148.791 14.687,135.773 30.744,135.773 C46.801,135.773 59.813,148.791 59.813,164.848 L59.813,164.848 Z" id="Shape" stroke="#316BBF" stroke-width="10.1972"></path>
                    <path d="M59.31,169.542 C59.31,185.594 46.298,198.611 30.241,198.611 C14.184,198.611 1.173,185.593 1.173,169.542 C1.173,153.485 14.184,140.467 30.241,140.467 C46.298,140.467 59.31,153.485 59.31,169.542 L59.31,169.542 Z" id="Shape" stroke="#326ABF" stroke-width="10.196"></path>
                    <path d="M58.947,174.276 C58.947,190.328 45.935,203.345 29.878,203.345 C13.821,203.345 0.81,190.328 0.81,174.276 C0.81,158.219 13.821,145.201 29.878,145.201 C45.935,145.201 58.947,158.219 58.947,174.276 L58.947,174.276 Z" id="Shape" stroke="#336ABE" stroke-width="10.1948"></path>
                    <path d="M58.729,179.05 C58.729,195.101 45.717,208.118 29.66,208.118 C13.603,208.118 0.592,195.1 0.592,179.05 C0.592,162.993 13.603,149.975 29.66,149.975 C45.717,149.975 58.729,162.993 58.729,179.05 L58.729,179.05 Z" id="Shape" stroke="#3469BE" stroke-width="10.1936"></path>
                    <path d="M58.655,183.858 C58.655,199.91 45.643,212.928 29.586,212.928 C13.529,212.928 0.518,199.909 0.518,183.858 C0.518,167.801 13.529,154.783 29.586,154.783 C45.643,154.783 58.655,167.801 58.655,183.858 L58.655,183.858 Z" id="Shape" stroke="#3569BD" stroke-width="10.1924"></path>
                    <path d="M58.728,188.669 C58.728,204.721 45.716,217.738 29.659,217.738 C13.602,217.738 0.59,204.721 0.59,188.669 C0.59,172.611 13.601,159.594 29.658,159.594 C45.715,159.594 58.728,172.611 58.728,188.669 L58.728,188.669 Z" id="Shape" stroke="#3668BC" stroke-width="10.1912"></path>
                    <path d="M58.947,193.441 C58.947,209.493 45.935,222.51 29.878,222.51 C13.821,222.51 0.81,209.493 0.81,193.441 C0.81,177.383 13.821,164.366 29.878,164.366 C45.935,164.366 58.947,177.384 58.947,193.441 L58.947,193.441 Z" id="Shape" stroke="#3768BC" stroke-width="10.19"></path>
                    <path d="M59.31,198.176 C59.31,214.228 46.298,227.245 30.241,227.245 C14.184,227.245 1.173,214.227 1.173,198.176 C1.173,182.119 14.184,169.101 30.241,169.101 C46.298,169.101 59.31,182.119 59.31,198.176 L59.31,198.176 Z" id="Shape" stroke="#3867BB" stroke-width="10.1887"></path>
                    <path d="M59.813,202.869 C59.813,218.921 46.801,231.938 30.744,231.938 C14.687,231.938 1.676,218.92 1.676,202.869 C1.676,186.812 14.687,173.794 30.744,173.794 C46.801,173.794 59.813,186.812 59.813,202.869 L59.813,202.869 Z" id="Shape" stroke="#3967BB" stroke-width="10.1875"></path>
                    <path d="M60.456,207.52 C60.456,223.572 47.444,236.589 31.387,236.589 C15.33,236.589 2.319,223.571 2.319,207.52 C2.319,191.462 15.33,178.445 31.387,178.445 C47.444,178.445 60.456,191.462 60.456,207.52 L60.456,207.52 Z" id="Shape" stroke="#3A66BA" stroke-width="10.1863"></path>
                    <path d="M61.236,212.124 C61.236,228.176 48.224,241.193 32.167,241.193 C16.11,241.193 3.099,228.175 3.099,212.124 C3.099,196.067 16.11,183.05 32.167,183.05 C48.224,183.05 61.236,196.067 61.236,212.124 L61.236,212.124 Z" id="Shape" stroke="#3B66B9" stroke-width="10.1851"></path>
                    <path d="M62.15,216.683 C62.15,232.735 49.138,245.752 33.081,245.752 C17.024,245.752 4.013,232.734 4.013,216.683 C4.013,200.625 17.024,187.609 33.081,187.609 C49.138,187.609 62.15,200.625 62.15,216.683 L62.15,216.683 Z" id="Shape" stroke="#3C65B9" stroke-width="10.1839"></path>
                    <path d="M63.197,221.19 C63.197,237.242 50.185,250.259 34.128,250.259 C18.071,250.259 5.06,237.242 5.06,221.19 C5.06,205.133 18.071,192.116 34.128,192.116 C50.185,192.116 63.197,205.134 63.197,221.19 L63.197,221.19 Z" id="Shape" stroke="#3D64B8" stroke-width="10.1827"></path>
                    <path d="M64.375,225.647 C64.375,241.699 51.363,254.716 35.306,254.716 C19.249,254.716 6.238,241.698 6.238,225.647 C6.238,209.589 19.249,196.573 35.306,196.573 C51.363,196.573 64.375,209.59 64.375,225.647 L64.375,225.647 Z" id="Shape" stroke="#3E64B7" stroke-width="10.1815"></path>
                    <path d="M65.682,230.051 C65.682,246.103 52.67,259.12 36.613,259.12 C20.556,259.12 7.545,246.102 7.545,230.051 C7.545,213.994 20.556,200.976 36.613,200.976 C52.67,200.976 65.682,213.994 65.682,230.051 L65.682,230.051 Z" id="Shape" stroke="#3F63B7" stroke-width="10.1803"></path>
                    <path d="M67.114,234.398 C67.114,250.45 54.102,263.467 38.045,263.467 C21.988,263.467 8.977,250.449 8.977,234.398 C8.977,218.34 21.988,205.323 38.045,205.323 C54.102,205.323 67.114,218.341 67.114,234.398 L67.114,234.398 Z" id="Shape" stroke="#4063B6" stroke-width="10.1791"></path>
                    <path d="M68.671,238.688 C68.671,254.74 55.659,267.757 39.602,267.757 C23.545,267.757 10.534,254.739 10.534,238.688 C10.534,222.63 23.545,209.613 39.602,209.613 C55.659,209.613 68.671,222.63 68.671,238.688 L68.671,238.688 Z" id="Shape" stroke="#4162B6" stroke-width="10.1779"></path>
                    <path d="M70.35,242.917 C70.35,258.969 57.338,271.986 41.281,271.986 C25.224,271.986 12.213,258.968 12.213,242.917 C12.213,226.86 25.224,213.842 41.281,213.842 C57.338,213.842 70.35,226.86 70.35,242.917 L70.35,242.917 Z" id="Shape" stroke="#4262B5" stroke-width="10.1766"></path>
                    <path d="M72.148,247.084 C72.148,263.136 59.136,276.153 43.079,276.153 C27.022,276.153 14.011,263.135 14.011,247.084 C14.011,231.027 27.022,218.009 43.079,218.009 C59.136,218.009 72.148,231.027 72.148,247.084 L72.148,247.084 Z" id="Shape" stroke="#4361B4" stroke-width="10.1754"></path>
                    <path d="M74.065,251.186 C74.065,267.238 61.053,280.255 44.996,280.255 C28.939,280.255 15.928,267.237 15.928,251.186 C15.928,235.129 28.939,222.112 44.996,222.112 C61.053,222.112 74.065,235.129 74.065,251.186 L74.065,251.186 Z" id="Shape" stroke="#4461B4" stroke-width="10.1742"></path>
                    <path d="M76.097,255.222 C76.097,271.274 63.085,284.291 47.028,284.291 C30.971,284.291 17.96,271.273 17.96,255.222 C17.96,239.165 30.971,226.148 47.028,226.148 C63.085,226.148 76.097,239.165 76.097,255.222 L76.097,255.222 Z" id="Shape" stroke="#4560B3" stroke-width="10.173"></path>
                    <path d="M78.243,259.189 C78.243,275.241 65.231,288.258 49.174,288.258 C33.117,288.258 20.106,275.24 20.106,259.189 C20.106,243.131 33.117,230.114 49.174,230.114 C65.231,230.114 78.243,243.132 78.243,259.189 L78.243,259.189 Z" id="Shape" stroke="#4660B2" stroke-width="10.1718"></path>
                    <path d="M80.5,263.086 C80.5,279.138 67.488,292.155 51.431,292.155 C35.374,292.155 22.363,279.137 22.363,263.086 C22.363,247.028 35.374,234.011 51.431,234.011 C67.488,234.011 80.5,247.028 80.5,263.086 L80.5,263.086 Z" id="Shape" stroke="#475FB2" stroke-width="10.1706"></path>
                    <path d="M82.866,266.909 C82.866,282.961 69.854,295.978 53.797,295.978 C37.74,295.978 24.729,282.96 24.729,266.909 C24.729,250.852 37.74,237.835 53.797,237.835 C69.854,237.835 82.866,250.853 82.866,266.909 L82.866,266.909 Z" id="Shape" stroke="#485FB1" stroke-width="10.1694"></path>
                    <path d="M85.339,270.658 C85.339,286.71 72.327,299.727 56.27,299.727 C40.213,299.727 27.202,286.709 27.202,270.658 C27.202,254.6 40.213,241.583 56.27,241.583 C72.327,241.583 85.339,254.601 85.339,270.658 L85.339,270.658 Z" id="Shape" stroke="#495EB1" stroke-width="10.1682"></path>
                    <path d="M87.917,274.329 C87.917,290.381 74.905,303.398 58.848,303.398 C42.791,303.398 29.78,290.38 29.78,274.329 C29.78,258.272 42.791,245.255 58.848,245.255 C74.905,245.255 87.917,258.272 87.917,274.329 L87.917,274.329 Z" id="Shape" stroke="#4A5EB0" stroke-width="10.167"></path>
                    <path d="M90.599,277.922 C90.599,293.974 77.587,306.991 61.53,306.991 C45.473,306.991 32.462,293.973 32.462,277.922 C32.462,261.864 45.473,248.847 61.53,248.847 C77.587,248.847 90.599,261.864 90.599,277.922 L90.599,277.922 Z" id="Shape" stroke="#4B5DAF" stroke-width="10.1658"></path>
                    <path d="M93.38,281.432 C93.38,297.484 80.368,310.501 64.311,310.501 C48.254,310.501 35.243,297.483 35.243,281.432 C35.243,265.374 48.254,252.358 64.311,252.358 C80.368,252.358 93.38,265.374 93.38,281.432 L93.38,281.432 Z" id="Shape" stroke="#4C5CAF" stroke-width="10.1645"></path>
                    <path d="M96.261,284.858 C96.261,300.91 83.249,313.927 67.192,313.927 C51.135,313.927 38.124,300.909 38.124,284.858 C38.124,268.801 51.135,255.784 67.192,255.784 C83.249,255.784 96.261,268.802 96.261,284.858 L96.261,284.858 Z" id="Shape" stroke="#4D5CAE" stroke-width="10.1633"></path>
                    <path d="M99.238,288.2 C99.238,304.252 86.226,317.269 70.169,317.269 C54.112,317.269 41.1,304.252 41.1,288.2 C41.1,272.142 54.111,259.126 70.168,259.126 C86.225,259.126 99.238,272.143 99.238,288.2 L99.238,288.2 Z" id="Shape" stroke="#4E5BAD" stroke-width="10.1621"></path>
                    <path d="M102.309,291.453 C102.309,307.505 89.297,320.522 73.24,320.522 C57.183,320.522 44.172,307.504 44.172,291.453 C44.172,275.396 57.183,262.379 73.24,262.379 C89.297,262.379 102.309,275.396 102.309,291.453 L102.309,291.453 Z" id="Shape" stroke="#4F5BAD" stroke-width="10.1609"></path>
                    <path d="M105.472,294.616 C105.472,310.668 92.46,323.685 76.403,323.685 C60.346,323.685 47.335,310.667 47.335,294.616 C47.335,278.559 60.346,265.542 76.403,265.542 C92.46,265.542 105.472,278.56 105.472,294.616 L105.472,294.616 Z" id="Shape" stroke="#505AAC" stroke-width="10.1597"></path>
                    <path d="M108.725,297.688 C108.725,313.74 95.713,326.757 79.656,326.757 C63.599,326.757 50.588,313.739 50.588,297.688 C50.588,281.63 63.599,268.613 79.656,268.613 C95.713,268.613 108.725,281.631 108.725,297.688 L108.725,297.688 Z" id="Shape" stroke="#515AAC" stroke-width="10.1585"></path>
                    <path d="M112.066,300.665 C112.066,316.717 99.054,329.734 82.997,329.734 C66.94,329.734 53.929,316.716 53.929,300.665 C53.929,284.608 66.94,271.59 82.997,271.59 C99.054,271.59 112.066,284.608 112.066,300.665 L112.066,300.665 Z" id="Shape" stroke="#5259AB" stroke-width="10.1573"></path>
                    <path d="M115.493,303.546 C115.493,319.598 102.481,332.615 86.424,332.615 C70.367,332.615 57.356,319.597 57.356,303.546 C57.356,287.488 70.367,274.471 86.424,274.471 C102.481,274.471 115.493,287.488 115.493,303.546 L115.493,303.546 Z" id="Shape" stroke="#5359AA" stroke-width="10.1561"></path>
                    <path d="M119.004,306.327 C119.004,322.379 105.992,335.396 89.935,335.396 C73.878,335.396 60.867,322.378 60.867,306.327 C60.867,290.27 73.878,277.252 89.935,277.252 C105.992,277.252 119.004,290.271 119.004,306.327 L119.004,306.327 Z" id="Shape" stroke="#5458AA" stroke-width="10.1549"></path>
                    <path d="M122.596,309.009 C122.596,325.061 109.584,338.078 93.527,338.078 C77.47,338.078 64.459,325.06 64.459,309.009 C64.459,292.951 77.47,279.934 93.527,279.934 C109.584,279.934 122.596,292.951 122.596,309.009 L122.596,309.009 Z" id="Shape" stroke="#5558A9" stroke-width="10.1537"></path>
                    <path d="M126.267,311.587 C126.267,327.639 113.255,340.656 97.198,340.656 C81.141,340.656 68.13,327.638 68.13,311.587 C68.13,295.529 81.141,282.512 97.198,282.512 C113.255,282.512 126.267,295.529 126.267,311.587 L126.267,311.587 Z" id="Shape" stroke="#5657A8" stroke-width="10.1524"></path>
                    <path d="M130.016,314.061 C130.016,330.113 117.004,343.13 100.947,343.13 C84.89,343.13 71.879,330.112 71.879,314.061 C71.879,298.004 84.89,284.986 100.947,284.986 C117.004,284.986 130.016,298.004 130.016,314.061 L130.016,314.061 Z" id="Shape" stroke="#5757A8" stroke-width="10.1512"></path>
                    <path d="M133.839,316.427 C133.839,332.479 120.827,345.496 104.77,345.496 C88.713,345.496 75.702,332.478 75.702,316.427 C75.702,300.37 88.713,287.352 104.77,287.352 C120.827,287.352 133.839,300.37 133.839,316.427 L133.839,316.427 Z" id="Shape" stroke="#5856A7" stroke-width="10.15"></path>
                    <path d="M137.736,318.684 C137.736,334.736 124.724,347.753 108.667,347.753 C92.61,347.753 79.599,334.735 79.599,318.684 C79.599,302.627 92.61,289.61 108.667,289.61 C124.724,289.61 137.736,302.627 137.736,318.684 L137.736,318.684 Z" id="Shape" stroke="#5956A7" stroke-width="10.1488"></path>
                    <path d="M141.703,320.829 C141.703,336.881 128.691,349.898 112.634,349.898 C96.577,349.898 83.566,336.88 83.566,320.829 C83.566,304.772 96.577,291.755 112.634,291.755 C128.691,291.755 141.703,304.772 141.703,320.829 L141.703,320.829 Z" id="Shape" stroke="#5A55A6" stroke-width="10.1476"></path>
                    <path d="M145.739,322.861 C145.739,338.913 132.727,351.93 116.67,351.93 C100.613,351.93 87.602,338.912 87.602,322.861 C87.602,306.803 100.613,293.787 116.67,293.787 C132.727,293.787 145.739,306.804 145.739,322.861 L145.739,322.861 Z" id="Shape" stroke="#5B54A5" stroke-width="10.1464"></path>
                    <path d="M149.842,324.778 C149.842,340.83 136.83,353.847 120.773,353.847 C104.716,353.847 91.705,340.829 91.705,324.778 C91.705,308.72 104.716,295.704 120.773,295.704 C136.83,295.704 149.842,308.721 149.842,324.778 L149.842,324.778 Z" id="Shape" stroke="#5C54A5" stroke-width="10.1452"></path>
                    <path d="M154.009,326.577 C154.009,342.629 140.997,355.646 124.94,355.646 C108.883,355.646 95.872,342.628 95.872,326.577 C95.872,310.52 108.883,297.503 124.94,297.503 C140.997,297.503 154.009,310.521 154.009,326.577 L154.009,326.577 Z" id="Shape" stroke="#5D53A4" stroke-width="10.144"></path>
                    <path d="M158.238,328.256 C158.238,344.308 145.226,357.325 129.169,357.325 C113.112,357.325 100.1,344.308 100.1,328.256 C100.1,312.199 113.111,299.182 129.168,299.182 C145.225,299.182 158.238,312.199 158.238,328.256 L158.238,328.256 Z" id="Shape" stroke="#5E53A3" stroke-width="10.1428"></path>
                    <path d="M162.527,329.812 C162.527,345.864 149.515,358.881 133.458,358.881 C117.401,358.881 104.39,345.863 104.39,329.812 C104.39,313.755 117.401,300.738 133.458,300.738 C149.515,300.738 162.527,313.756 162.527,329.812 L162.527,329.812 Z" id="Shape" stroke="#5F52A3" stroke-width="10.1416"></path>
                    <path d="M166.875,331.245 C166.875,347.297 153.863,360.314 137.806,360.314 C121.749,360.314 108.738,347.296 108.738,331.245 C108.738,315.188 121.749,302.171 137.806,302.171 C153.863,302.171 166.875,315.188 166.875,331.245 L166.875,331.245 Z" id="Shape" stroke="#6052A2" stroke-width="10.1403"></path>
                    <path d="M171.278,332.552 C171.278,348.604 158.266,361.621 142.209,361.621 C126.152,361.621 113.141,348.603 113.141,332.552 C113.141,316.494 126.152,303.478 142.209,303.478 C158.266,303.478 171.278,316.494 171.278,332.552 L171.278,332.552 Z" id="Shape" stroke="#6151A2" stroke-width="10.1391"></path>
                    <path d="M175.735,333.729 C175.735,349.781 162.723,362.798 146.666,362.798 C130.609,362.798 117.598,349.78 117.598,333.729 C117.598,317.672 130.609,304.655 146.666,304.655 C162.723,304.655 175.735,317.673 175.735,333.729 L175.735,333.729 Z" id="Shape" stroke="#6251A1" stroke-width="10.1379"></path>
                    <path d="M180.244,334.777 C180.244,350.829 167.232,363.846 151.175,363.846 C135.118,363.846 122.107,350.828 122.107,334.777 C122.107,318.72 135.118,305.702 151.175,305.702 C167.232,305.702 180.244,318.721 180.244,334.777 L180.244,334.777 Z" id="Shape" stroke="#6350A0" stroke-width="10.1367"></path>
                    <path d="M184.802,335.692 C184.802,351.744 171.79,364.761 155.733,364.761 C139.676,364.761 126.665,351.743 126.665,335.692 C126.665,319.634 139.676,306.617 155.733,306.617 C171.79,306.617 184.802,319.635 184.802,335.692 L184.802,335.692 Z" id="Shape" stroke="#6450A0" stroke-width="10.1355"></path>
                    <path d="M189.407,336.472 C189.407,352.524 176.395,365.541 160.337,365.541 C144.279,365.541 131.269,352.523 131.269,336.472 C131.269,320.415 144.28,307.397 160.337,307.397 C176.394,307.397 189.407,320.415 189.407,336.472 L189.407,336.472 Z" id="Shape" stroke="#654F9F" stroke-width="10.1343"></path>
                    <path d="M194.058,337.115 C194.058,353.167 181.046,366.184 164.989,366.184 C148.932,366.184 135.921,353.166 135.921,337.115 C135.921,321.057 148.932,308.04 164.989,308.04 C181.046,308.04 194.058,321.058 194.058,337.115 L194.058,337.115 Z" id="Shape" stroke="#664F9E" stroke-width="10.1331"></path>
                    <path d="M198.751,337.618 C198.751,353.67 185.739,366.687 169.682,366.687 C153.625,366.687 140.614,353.669 140.614,337.618 C140.614,321.561 153.625,308.544 169.682,308.544 C185.739,308.544 198.751,321.562 198.751,337.618 L198.751,337.618 Z" id="Shape" stroke="#674E9E" stroke-width="10.1319"></path>
                    <path d="M203.485,337.98 C203.485,354.032 190.473,367.049 174.416,367.049 C158.359,367.049 145.348,354.031 145.348,337.98 C145.348,321.923 158.359,308.906 174.416,308.906 C190.473,308.906 203.485,321.924 203.485,337.98 L203.485,337.98 Z" id="Shape" stroke="#684E9D" stroke-width="10.1307"></path>
                    <path d="M208.259,338.199 C208.259,354.252 195.247,367.269 179.19,367.269 C163.133,367.269 150.122,354.251 150.122,338.199 C150.122,322.142 163.133,309.125 179.19,309.125 C195.247,309.125 208.259,322.143 208.259,338.199 L208.259,338.199 Z" id="Shape" stroke="#694D9D" stroke-width="10.1295"></path>
                    <path d="M213.068,338.273 C213.068,354.325 200.056,367.342 183.999,367.342 C167.941,367.342 154.931,354.324 154.931,338.273 C154.931,322.215 167.942,309.198 183.999,309.198 C200.057,309.198 213.068,322.216 213.068,338.273 L213.068,338.273 Z" id="Shape" stroke="#6A4D9C" stroke-width="10.1283"></path>
                    <path d="M217.879,338.2 C217.879,354.252 204.867,367.269 188.81,367.269 C172.753,367.269 159.742,354.251 159.742,338.2 C159.742,322.142 172.753,309.125 188.81,309.125 C204.867,309.125 217.879,322.143 217.879,338.2 L217.879,338.2 Z" id="Shape" stroke="#6B4C9B" stroke-width="10.127"></path>
                    <path d="M222.652,337.98 C222.652,354.032 209.64,367.049 193.583,367.049 C177.526,367.049 164.515,354.031 164.515,337.98 C164.515,321.923 177.526,308.906 193.583,308.906 C209.64,308.906 222.652,321.924 222.652,337.98 L222.652,337.98 Z" id="Shape" stroke="#6C4B9B" stroke-width="10.1258"></path>
                    <path d="M227.387,337.618 C227.387,353.67 214.375,366.687 198.318,366.687 C182.261,366.687 169.25,353.669 169.25,337.618 C169.25,321.56 182.261,308.544 198.318,308.544 C214.375,308.544 227.387,321.561 227.387,337.618 L227.387,337.618 Z" id="Shape" stroke="#6D4B9A" stroke-width="10.1246"></path>
                    <path d="M232.08,337.114 C232.08,353.166 219.068,366.183 203.011,366.183 C186.954,366.183 173.943,353.165 173.943,337.114 C173.943,321.057 186.954,308.04 203.011,308.04 C219.068,308.04 232.08,321.058 232.08,337.114 L232.08,337.114 Z" id="Shape" stroke="#6E4A9A" stroke-width="10.1234"></path>
                    <path d="M236.73,336.472 C236.73,352.524 223.718,365.541 207.661,365.541 C191.604,365.541 178.593,352.523 178.593,336.472 C178.593,320.415 191.603,307.398 207.661,307.398 C223.719,307.398 236.73,320.415 236.73,336.472 L236.73,336.472 Z" id="Shape" stroke="#6F4A99" stroke-width="10.1222"></path>
                    <path d="M241.336,335.692 C241.336,351.744 228.324,364.761 212.267,364.761 C196.21,364.761 183.199,351.743 183.199,335.692 C183.199,319.634 196.21,306.617 212.267,306.617 C228.324,306.617 241.336,319.635 241.336,335.692 L241.336,335.692 Z" id="Shape" stroke="#704998" stroke-width="10.121"></path>
                    <path d="M245.895,334.777 C245.895,350.829 232.883,363.846 216.826,363.846 C200.769,363.846 187.758,350.828 187.758,334.777 C187.758,318.72 200.769,305.702 216.826,305.702 C232.883,305.702 245.895,318.721 245.895,334.777 L245.895,334.777 Z" id="Shape" stroke="#714998" stroke-width="10.1198"></path>
                    <path d="M250.402,333.73 C250.402,349.782 237.39,362.799 221.333,362.799 C205.276,362.799 192.265,349.781 192.265,333.73 C192.265,317.672 205.276,304.655 221.333,304.655 C237.39,304.655 250.402,317.673 250.402,333.73 L250.402,333.73 Z" id="Shape" stroke="#724897" stroke-width="10.1186"></path>
                    <path d="M254.859,332.553 C254.859,348.605 241.847,361.622 225.79,361.622 C209.733,361.622 196.722,348.604 196.722,332.553 C196.722,316.495 209.733,303.478 225.79,303.478 C241.847,303.478 254.859,316.495 254.859,332.553 L254.859,332.553 Z" id="Shape" stroke="#734896" stroke-width="10.1174"></path>
                    <path d="M259.263,331.245 C259.263,347.297 246.251,360.314 230.194,360.314 C214.137,360.314 201.126,347.296 201.126,331.245 C201.126,315.188 214.137,302.171 230.194,302.171 C246.251,302.171 259.263,315.188 259.263,331.245 L259.263,331.245 Z" id="Shape" stroke="#744796" stroke-width="10.1162"></path>
                    <path d="M263.61,329.812 C263.61,345.864 250.598,358.881 234.541,358.881 C218.484,358.881 205.473,345.863 205.473,329.812 C205.473,313.755 218.484,300.738 234.541,300.738 C250.598,300.738 263.61,313.756 263.61,329.812 L263.61,329.812 Z" id="Shape" stroke="#754795" stroke-width="10.1149"></path>
                    <path d="M267.899,328.256 C267.899,344.308 254.887,357.325 238.83,357.325 C222.773,357.325 209.762,344.307 209.762,328.256 C209.762,312.199 222.773,299.182 238.83,299.182 C254.887,299.182 267.899,312.199 267.899,328.256 L267.899,328.256 Z" id="Shape" stroke="#764695" stroke-width="10.1137"></path>
                    <path d="M272.129,326.577 C272.129,342.629 259.117,355.646 243.06,355.646 C227.003,355.646 213.992,342.628 213.992,326.577 C213.992,310.519 227.003,297.503 243.06,297.503 C259.117,297.503 272.129,310.52 272.129,326.577 L272.129,326.577 Z" id="Shape" stroke="#774694" stroke-width="10.1125"></path>
                    <path d="M276.296,324.778 C276.296,340.83 263.284,353.847 247.227,353.847 C231.17,353.847 218.159,340.829 218.159,324.778 C218.159,308.72 231.17,295.704 247.227,295.704 C263.284,295.704 276.296,308.721 276.296,324.778 L276.296,324.778 Z" id="Shape" stroke="#784593" stroke-width="10.1113"></path>
                    <path d="M280.398,322.861 C280.398,338.913 267.386,351.93 251.329,351.93 C235.272,351.93 222.261,338.912 222.261,322.861 C222.261,306.804 235.272,293.787 251.329,293.787 C267.386,293.787 280.398,306.805 280.398,322.861 L280.398,322.861 Z" id="Shape" stroke="#794593" stroke-width="10.1101"></path>
                    <path d="M284.435,320.829 C284.435,336.881 271.423,349.898 255.366,349.898 C239.309,349.898 226.298,336.88 226.298,320.829 C226.298,304.772 239.309,291.755 255.366,291.755 C271.423,291.755 284.435,304.772 284.435,320.829 L284.435,320.829 Z" id="Shape" stroke="#7A4492" stroke-width="10.1089"></path>
                    <path d="M288.401,318.684 C288.401,334.736 275.389,347.753 259.332,347.753 C243.275,347.753 230.264,334.735 230.264,318.684 C230.264,302.627 243.275,289.61 259.332,289.61 C275.389,289.61 288.401,302.627 288.401,318.684 L288.401,318.684 Z" id="Shape" stroke="#7B4391" stroke-width="10.1077"></path>
                    <path d="M292.299,316.427 C292.299,332.479 279.287,345.496 263.23,345.496 C247.173,345.496 234.162,332.478 234.162,316.427 C234.162,300.37 247.173,287.352 263.23,287.352 C279.287,287.352 292.299,300.37 292.299,316.427 L292.299,316.427 Z" id="Shape" stroke="#7C4391" stroke-width="10.1065"></path>
                    <path d="M296.122,314.061 C296.122,330.113 283.11,343.13 267.053,343.13 C250.996,343.13 237.985,330.112 237.985,314.061 C237.985,298.003 250.996,284.986 267.053,284.986 C283.11,284.986 296.122,298.003 296.122,314.061 L296.122,314.061 Z" id="Shape" stroke="#7D4290" stroke-width="10.1053"></path>
                    <path d="M299.87,311.587 C299.87,327.639 286.858,340.656 270.801,340.656 C254.744,340.656 241.733,327.638 241.733,311.587 C241.733,295.529 254.744,282.512 270.801,282.512 C286.858,282.512 299.87,295.529 299.87,311.587 L299.87,311.587 Z" id="Shape" stroke="#7E4290" stroke-width="10.1041"></path>
                    <path d="M303.542,309.009 C303.542,325.061 290.53,338.078 274.473,338.078 C258.416,338.078 245.405,325.06 245.405,309.009 C245.405,292.951 258.416,279.934 274.473,279.934 C290.53,279.934 303.542,292.951 303.542,309.009 L303.542,309.009 Z" id="Shape" stroke="#7F418F" stroke-width="10.1028"></path>
                    <path d="M307.134,306.327 C307.134,322.379 294.122,335.396 278.065,335.396 C262.008,335.396 248.997,322.378 248.997,306.327 C248.997,290.27 262.008,277.253 278.065,277.253 C294.122,277.253 307.134,290.271 307.134,306.327 L307.134,306.327 Z" id="Shape" stroke="#80418E" stroke-width="10.1016"></path>
                    <path d="M310.645,303.546 C310.645,319.598 297.633,332.615 281.576,332.615 C265.519,332.615 252.508,319.597 252.508,303.546 C252.508,287.489 265.519,274.471 281.576,274.471 C297.633,274.471 310.645,287.489 310.645,303.546 L310.645,303.546 Z" id="Shape" stroke="#81408E" stroke-width="10.1004"></path>
                    <path d="M314.071,300.665 C314.071,316.717 301.059,329.734 285.002,329.734 C268.945,329.734 255.934,316.716 255.934,300.665 C255.934,284.607 268.945,271.59 285.002,271.59 C301.059,271.59 314.071,284.607 314.071,300.665 L314.071,300.665 Z" id="Shape" stroke="#82408D" stroke-width="10.0992"></path>
                    <path d="M317.412,297.688 C317.412,313.74 304.4,326.757 288.343,326.757 C272.286,326.757 259.275,313.739 259.275,297.688 C259.275,281.63 272.286,268.613 288.343,268.613 C304.4,268.613 317.412,281.631 317.412,297.688 L317.412,297.688 Z" id="Shape" stroke="#833F8C" stroke-width="10.098"></path>
                    <path d="M320.666,294.617 C320.666,310.669 307.654,323.686 291.597,323.686 C275.54,323.686 262.529,310.668 262.529,294.617 C262.529,278.559 275.54,265.542 291.597,265.542 C307.654,265.542 320.666,278.56 320.666,294.617 L320.666,294.617 Z" id="Shape" stroke="#843F8C" stroke-width="10.0968"></path>
                    <path d="M323.829,291.454 C323.829,307.506 310.817,320.523 294.76,320.523 C278.703,320.523 265.692,307.505 265.692,291.454 C265.692,275.396 278.703,262.379 294.76,262.379 C310.817,262.379 323.829,275.396 323.829,291.454 L323.829,291.454 Z" id="Shape" stroke="#853E8B" stroke-width="10.0956"></path>
                    <path d="M326.899,288.2 C326.899,304.252 313.887,317.269 297.83,317.269 C281.773,317.269 268.762,304.251 268.762,288.2 C268.762,272.143 281.773,259.126 297.83,259.126 C313.887,259.126 326.899,272.144 326.899,288.2 L326.899,288.2 Z" id="Shape" stroke="#863E8B" stroke-width="10.0944"></path>
                    <path d="M329.877,284.858 C329.877,300.91 316.865,313.927 300.808,313.927 C284.751,313.927 271.74,300.909 271.74,284.858 C271.74,268.8 284.751,255.784 300.808,255.784 C316.865,255.784 329.877,268.801 329.877,284.858 L329.877,284.858 Z" id="Shape" stroke="#873D8A" stroke-width="10.0932"></path>
                    <path d="M332.757,281.432 C332.757,297.484 319.745,310.501 303.688,310.501 C287.631,310.501 274.62,297.483 274.62,281.432 C274.62,265.374 287.631,252.358 303.688,252.358 C319.745,252.358 332.757,265.374 332.757,281.432 L332.757,281.432 Z" id="Shape" stroke="#883D89" stroke-width="10.092"></path>
                    <path d="M335.539,277.921 C335.539,293.973 322.527,306.99 306.47,306.99 C290.413,306.99 277.402,293.972 277.402,277.921 C277.402,261.864 290.413,248.847 306.47,248.847 C322.527,248.847 335.539,261.864 335.539,277.921 L335.539,277.921 Z" id="Shape" stroke="#893C89" stroke-width="10.0907"></path>
                    <path d="M338.22,274.329 C338.22,290.381 325.208,303.398 309.151,303.398 C293.094,303.398 280.083,290.38 280.083,274.329 C280.083,258.272 293.094,245.255 309.151,245.255 C325.208,245.255 338.22,258.272 338.22,274.329 L338.22,274.329 Z" id="Shape" stroke="#8A3B88" stroke-width="10.0895"></path>
                    <path d="M340.798,270.658 C340.798,286.71 327.786,299.727 311.729,299.727 C295.672,299.727 282.661,286.709 282.661,270.658 C282.661,254.601 295.672,241.583 311.729,241.583 C327.786,241.583 340.798,254.602 340.798,270.658 L340.798,270.658 Z" id="Shape" stroke="#8B3B87" stroke-width="10.0883"></path>
                    <path d="M343.271,266.909 C343.271,282.961 330.259,295.978 314.202,295.978 C298.145,295.978 285.134,282.96 285.134,266.909 C285.134,250.852 298.145,237.835 314.202,237.835 C330.259,237.835 343.271,250.853 343.271,266.909 L343.271,266.909 Z" id="Shape" stroke="#8C3A87" stroke-width="10.0871"></path>
                    <path d="M345.638,263.086 C345.638,279.138 332.626,292.155 316.569,292.155 C300.512,292.155 287.5,279.138 287.5,263.086 C287.5,247.028 300.511,234.012 316.568,234.012 C332.625,234.012 345.638,247.028 345.638,263.086 L345.638,263.086 Z" id="Shape" stroke="#8D3A86" stroke-width="10.0859"></path>
                    <path d="M347.895,259.189 C347.895,275.241 334.883,288.258 318.826,288.258 C302.769,288.258 289.758,275.24 289.758,259.189 C289.758,243.131 302.769,230.114 318.826,230.114 C334.883,230.114 347.895,243.132 347.895,259.189 L347.895,259.189 Z" id="Shape" stroke="#8E3986" stroke-width="10.0847"></path>
                    <path d="M350.04,255.222 C350.04,271.274 337.028,284.291 320.971,284.291 C304.914,284.291 291.903,271.273 291.903,255.222 C291.903,239.165 304.914,226.148 320.971,226.148 C337.028,226.148 350.04,239.165 350.04,255.222 L350.04,255.222 Z" id="Shape" stroke="#8F3985" stroke-width="10.0835"></path>
                    <path d="M352.072,251.187 C352.072,267.239 339.06,280.256 323.003,280.256 C306.946,280.256 293.935,267.238 293.935,251.187 C293.935,235.129 306.946,222.112 323.003,222.112 C339.06,222.112 352.072,235.129 352.072,251.187 L352.072,251.187 Z" id="Shape" stroke="#903884" stroke-width="10.0823"></path>
                    <path d="M353.989,247.084 C353.989,263.136 340.977,276.153 324.92,276.153 C308.863,276.153 295.852,263.135 295.852,247.084 C295.852,231.027 308.863,218.009 324.92,218.009 C340.977,218.009 353.989,231.027 353.989,247.084 L353.989,247.084 Z" id="Shape" stroke="#913884" stroke-width="10.0811"></path>
                    <path d="M355.788,242.917 C355.788,258.969 342.776,271.986 326.719,271.986 C310.662,271.986 297.651,258.968 297.651,242.917 C297.651,226.859 310.662,213.842 326.719,213.842 C342.776,213.842 355.788,226.859 355.788,242.917 L355.788,242.917 Z" id="Shape" stroke="#923783" stroke-width="10.0799"></path>
                    <path d="M357.467,238.688 C357.467,254.74 344.455,267.757 328.398,267.757 C312.341,267.757 299.33,254.739 299.33,238.688 C299.33,222.631 312.341,209.613 328.398,209.613 C344.455,209.613 357.467,222.631 357.467,238.688 L357.467,238.688 Z" id="Shape" stroke="#933782" stroke-width="10.0786"></path>
                    <path d="M359.023,234.398 C359.023,250.45 346.011,263.467 329.954,263.467 C313.897,263.467 300.886,250.449 300.886,234.398 C300.886,218.34 313.897,205.323 329.954,205.323 C346.011,205.323 359.023,218.341 359.023,234.398 L359.023,234.398 Z" id="Shape" stroke="#943682" stroke-width="10.0774"></path>
                    <path d="M360.456,230.051 C360.456,246.103 347.444,259.12 331.387,259.12 C315.33,259.12 302.319,246.102 302.319,230.051 C302.319,213.994 315.33,200.976 331.387,200.976 C347.444,200.976 360.456,213.994 360.456,230.051 L360.456,230.051 Z" id="Shape" stroke="#953681" stroke-width="10.0762"></path>
                    <path d="M361.763,225.648 C361.763,241.7 348.751,254.717 332.694,254.717 C316.637,254.717 303.626,241.699 303.626,225.648 C303.626,209.591 316.637,196.573 332.694,196.573 C348.751,196.573 361.763,209.592 361.763,225.648 L361.763,225.648 Z" id="Shape" stroke="#963581" stroke-width="10.075"></path>
                    <path d="M362.94,221.19 C362.94,237.242 349.928,250.259 333.871,250.259 C317.814,250.259 304.803,237.241 304.803,221.19 C304.803,205.132 317.814,192.116 333.871,192.116 C349.928,192.116 362.94,205.133 362.94,221.19 L362.94,221.19 Z" id="Shape" stroke="#973580" stroke-width="10.0738"></path>
                    <path d="M363.987,216.683 C363.987,232.735 350.975,245.752 334.918,245.752 C318.861,245.752 305.85,232.734 305.85,216.683 C305.85,200.625 318.861,187.609 334.918,187.609 C350.975,187.609 363.987,200.625 363.987,216.683 L363.987,216.683 Z" id="Shape" stroke="#98347F" stroke-width="10.0726"></path>
                    <path d="M364.902,212.125 C364.902,228.176 351.89,241.193 335.833,241.193 C319.776,241.193 306.765,228.175 306.765,212.125 C306.765,196.067 319.776,183.05 335.833,183.05 C351.89,183.05 364.902,196.067 364.902,212.125 L364.902,212.125 Z" id="Shape" stroke="#99337F" stroke-width="10.0714"></path>
                    <path d="M365.682,207.52 C365.682,223.572 352.67,236.589 336.613,236.589 C320.556,236.589 307.545,223.571 307.545,207.52 C307.545,191.462 320.556,178.446 336.613,178.446 C352.67,178.446 365.682,191.462 365.682,207.52 L365.682,207.52 Z" id="Shape" stroke="#9A337E" stroke-width="10.0702"></path>
                    <path d="M366.324,202.869 C366.324,218.921 353.312,231.938 337.255,231.938 C321.198,231.938 308.187,218.92 308.187,202.869 C308.187,186.812 321.198,173.795 337.255,173.795 C353.312,173.795 366.324,186.812 366.324,202.869 L366.324,202.869 Z" id="Shape" stroke="#9B327D" stroke-width="10.069"></path>
                    <path d="M366.828,198.176 C366.828,214.228 353.816,227.245 337.759,227.245 C321.702,227.245 308.691,214.227 308.691,198.176 C308.691,182.119 321.702,169.101 337.759,169.101 C353.816,169.101 366.828,182.119 366.828,198.176 L366.828,198.176 Z" id="Shape" stroke="#9C327D" stroke-width="10.0678"></path>
                    <path d="M367.19,193.441 C367.19,209.493 354.178,222.51 338.121,222.51 C322.064,222.51 309.053,209.492 309.053,193.441 C309.053,177.384 322.064,164.367 338.121,164.367 C354.178,164.367 367.19,177.384 367.19,193.441 L367.19,193.441 Z" id="Shape" stroke="#9D317C" stroke-width="10.0665"></path>
                    <path d="M367.409,188.669 C367.409,204.721 354.397,217.738 338.34,217.738 C322.283,217.738 309.272,204.72 309.272,188.669 C309.272,172.611 322.283,159.594 338.34,159.594 C354.397,159.594 367.409,172.611 367.409,188.669 L367.409,188.669 Z" id="Shape" stroke="#9E317C" stroke-width="10.0653"></path>
                    <path d="M367.482,183.859 C367.482,199.911 354.47,212.929 338.414,212.929 C322.355,212.929 309.346,199.911 309.346,183.859 C309.346,167.802 322.356,154.784 338.414,154.784 C354.471,154.784 367.482,167.802 367.482,183.859 L367.482,183.859 Z" id="Shape" stroke="#9F307B" stroke-width="10.0641"></path>
                    <path d="M367.409,179.049 C367.409,195.101 354.397,208.119 338.34,208.119 C322.283,208.119 309.272,195.101 309.272,179.049 C309.272,162.992 322.283,149.974 338.34,149.974 C354.397,149.974 367.409,162.992 367.409,179.049 L367.409,179.049 Z" id="Shape" stroke="#A0307A" stroke-width="10.0629"></path>
                    <path d="M367.19,174.276 C367.19,190.328 354.178,203.345 338.121,203.345 C322.064,203.345 309.053,190.327 309.053,174.276 C309.053,158.219 322.064,145.201 338.121,145.201 C354.178,145.201 367.19,158.22 367.19,174.276 L367.19,174.276 Z" id="Shape" stroke="#A12F7A" stroke-width="10.0617"></path>
                    <path d="M366.828,169.542 C366.828,185.594 353.816,198.611 337.759,198.611 C321.702,198.611 308.691,185.593 308.691,169.542 C308.691,153.484 321.702,140.467 337.759,140.467 C353.816,140.467 366.828,153.484 366.828,169.542 L366.828,169.542 Z" id="Shape" stroke="#A22F79" stroke-width="10.0605"></path>
                    <path d="M366.324,164.849 C366.324,180.901 353.312,193.918 337.255,193.918 C321.198,193.918 308.187,180.9 308.187,164.849 C308.187,148.792 321.198,135.774 337.255,135.774 C353.312,135.774 366.324,148.792 366.324,164.849 L366.324,164.849 Z" id="Shape" stroke="#A32E79" stroke-width="10.0593"></path>
                    <path d="M365.682,160.198 C365.682,176.25 352.67,189.267 336.613,189.267 C320.556,189.267 307.545,176.249 307.545,160.198 C307.545,144.141 320.556,131.123 336.613,131.123 C352.67,131.123 365.682,144.141 365.682,160.198 L365.682,160.198 Z" id="Shape" stroke="#A42E78" stroke-width="10.0581"></path>
                    <path d="M364.902,155.593 C364.902,171.645 351.89,184.662 335.833,184.662 C319.776,184.662 306.765,171.644 306.765,155.593 C306.765,139.536 319.776,126.518 335.833,126.518 C351.89,126.518 364.902,139.536 364.902,155.593 L364.902,155.593 Z" id="Shape" stroke="#A52D77" stroke-width="10.0569"></path>
                    <path d="M363.987,151.036 C363.987,167.088 350.975,180.105 334.918,180.105 C318.861,180.105 305.85,167.087 305.85,151.036 C305.85,134.979 318.861,121.961 334.918,121.961 C350.975,121.961 363.987,134.979 363.987,151.036 L363.987,151.036 Z" id="Shape" stroke="#A62D77" stroke-width="10.0557"></path>
                    <path d="M362.94,146.527 C362.94,162.579 349.928,175.596 333.871,175.596 C317.814,175.596 304.803,162.578 304.803,146.527 C304.803,130.469 317.814,117.452 333.871,117.452 C349.928,117.452 362.94,130.47 362.94,146.527 L362.94,146.527 Z" id="Shape" stroke="#A72C76" stroke-width="10.0544"></path>
                    <path d="M361.763,142.07 C361.763,158.122 348.751,171.139 332.694,171.139 C316.637,171.139 303.626,158.121 303.626,142.07 C303.626,126.013 316.637,112.995 332.694,112.995 C348.751,112.995 361.763,126.013 361.763,142.07 L361.763,142.07 Z" id="Shape" stroke="#A82B75" stroke-width="10.0532"></path>
                    <path d="M360.456,137.667 C360.456,153.719 347.444,166.736 331.387,166.736 C315.33,166.736 302.319,153.718 302.319,137.667 C302.319,121.61 315.33,108.593 331.387,108.593 C347.444,108.593 360.456,121.609 360.456,137.667 L360.456,137.667 Z" id="Shape" stroke="#A92B75" stroke-width="10.052"></path>
                    <path d="M359.023,133.319 C359.023,149.371 346.011,162.388 329.954,162.388 C313.897,162.388 300.886,149.37 300.886,133.319 C300.886,117.262 313.897,104.245 329.954,104.245 C346.011,104.245 359.023,117.262 359.023,133.319 L359.023,133.319 Z" id="Shape" stroke="#AA2A74" stroke-width="10.0508"></path>
                    <path d="M357.467,129.03 C357.467,145.082 344.455,158.099 328.398,158.099 C312.341,158.099 299.33,145.081 299.33,129.03 C299.33,112.973 312.341,99.955 328.398,99.955 C344.455,99.955 357.467,112.973 357.467,129.03 L357.467,129.03 Z" id="Shape" stroke="#AB2A74" stroke-width="10.0496"></path>
                    <path d="M355.788,124.801 C355.788,140.853 342.776,153.87 326.719,153.87 C310.662,153.87 297.651,140.852 297.651,124.801 C297.651,108.744 310.662,95.726 326.719,95.726 C342.776,95.726 355.788,108.745 355.788,124.801 L355.788,124.801 Z" id="Shape" stroke="#AC2973" stroke-width="10.0484"></path>
                    <path d="M353.989,120.634 C353.989,136.686 340.977,149.703 324.92,149.703 C308.863,149.703 295.852,136.685 295.852,120.634 C295.852,104.577 308.863,91.559 324.92,91.559 C340.977,91.559 353.989,104.577 353.989,120.634 L353.989,120.634 Z" id="Shape" stroke="#AD2972" stroke-width="10.0472"></path>
                    <path d="M352.072,116.532 C352.072,132.584 339.06,145.601 323.003,145.601 C306.946,145.601 293.935,132.583 293.935,116.532 C293.935,100.475 306.946,87.457 323.003,87.457 C339.06,87.457 352.072,100.475 352.072,116.532 L352.072,116.532 Z" id="Shape" stroke="#AE2872" stroke-width="10.046"></path>
                    <path d="M350.04,112.496 C350.04,128.548 337.028,141.565 320.971,141.565 C304.914,141.565 291.903,128.547 291.903,112.496 C291.903,96.439 304.914,83.421 320.971,83.421 C337.028,83.421 350.04,96.438 350.04,112.496 L350.04,112.496 Z" id="Shape" stroke="#AF2871" stroke-width="10.0448"></path>
                    <path d="M347.895,108.528 C347.895,124.58 334.883,137.597 318.826,137.597 C302.769,137.597 289.758,124.579 289.758,108.528 C289.758,92.471 302.769,79.453 318.826,79.453 C334.883,79.453 347.895,92.471 347.895,108.528 L347.895,108.528 Z" id="Shape" stroke="#B02770" stroke-width="10.0436"></path>
                    <path d="M345.638,104.632 C345.638,120.684 332.626,133.701 316.569,133.701 C300.512,133.701 287.5,120.684 287.5,104.632 C287.5,88.575 300.511,75.557 316.568,75.557 C332.625,75.557 345.638,88.575 345.638,104.632 L345.638,104.632 Z" id="Shape" stroke="#B12770" stroke-width="10.0423"></path>
                    <path d="M343.271,100.808 C343.271,116.86 330.259,129.877 314.202,129.877 C298.145,129.877 285.134,116.859 285.134,100.808 C285.134,84.75 298.145,71.733 314.202,71.733 C330.259,71.733 343.271,84.75 343.271,100.808 L343.271,100.808 Z" id="Shape" stroke="#B2266F" stroke-width="10.0411"></path>
                    <path d="M340.798,97.06 C340.798,113.112 327.786,126.129 311.729,126.129 C295.672,126.129 282.661,113.111 282.661,97.06 C282.661,81.003 295.672,67.985 311.729,67.985 C327.786,67.985 340.798,81.002 340.798,97.06 L340.798,97.06 Z" id="Shape" stroke="#B3266F" stroke-width="10.0399"></path>
                    <path d="M338.22,93.389 C338.22,109.441 325.208,122.458 309.151,122.458 C293.094,122.458 280.083,109.44 280.083,93.389 C280.083,77.331 293.094,64.314 309.151,64.314 C325.208,64.314 338.22,77.331 338.22,93.389 L338.22,93.389 Z" id="Shape" stroke="#B4256E" stroke-width="10.0387"></path>
                    <path d="M335.539,89.796 C335.539,105.848 322.527,118.865 306.47,118.865 C290.413,118.865 277.402,105.847 277.402,89.796 C277.402,73.739 290.413,60.721 306.47,60.721 C322.527,60.721 335.539,73.739 335.539,89.796 L335.539,89.796 Z" id="Shape" stroke="#B5256D" stroke-width="10.0375"></path>
                    <path d="M332.757,86.286 C332.757,102.338 319.745,115.355 303.688,115.355 C287.631,115.355 274.62,102.337 274.62,86.286 C274.62,70.229 287.631,57.211 303.688,57.211 C319.745,57.211 332.757,70.229 332.757,86.286 L332.757,86.286 Z" id="Shape" stroke="#B6246D" stroke-width="10.0363"></path>
                    <path d="M329.877,82.859 C329.877,98.911 316.865,111.928 300.808,111.928 C284.751,111.928 271.74,98.91 271.74,82.859 C271.74,66.801 284.751,53.784 300.808,53.784 C316.865,53.784 329.877,66.801 329.877,82.859 L329.877,82.859 Z" id="Shape" stroke="#B7236C" stroke-width="10.0351"></path>
                    <path d="M326.899,79.518 C326.899,95.57 313.887,108.587 297.83,108.587 C281.773,108.587 268.762,95.569 268.762,79.518 C268.762,63.461 281.773,50.443 297.83,50.443 C313.887,50.443 326.899,63.461 326.899,79.518 L326.899,79.518 Z" id="Shape" stroke="#B8236B" stroke-width="10.0339"></path>
                    <path d="M323.829,76.265 C323.829,92.317 310.817,105.334 294.76,105.334 C278.703,105.334 265.692,92.316 265.692,76.265 C265.692,60.208 278.703,47.19 294.76,47.19 C310.817,47.19 323.829,60.208 323.829,76.265 L323.829,76.265 Z" id="Shape" stroke="#B9226B" stroke-width="10.0327"></path>
                    <path d="M320.665,73.101 C320.665,89.153 307.653,102.17 291.596,102.17 C275.539,102.17 262.528,89.152 262.528,73.101 C262.528,57.044 275.539,44.027 291.596,44.027 C307.653,44.027 320.665,57.044 320.665,73.101 L320.665,73.101 Z" id="Shape" stroke="#BA226A" stroke-width="10.0315"></path>
                    <path d="M317.412,70.03 C317.412,86.082 304.4,99.099 288.343,99.099 C272.286,99.099 259.275,86.081 259.275,70.03 C259.275,53.973 272.286,40.955 288.343,40.955 C304.4,40.955 317.412,53.973 317.412,70.03 L317.412,70.03 Z" id="Shape" stroke="#BB216A" stroke-width="10.0302"></path>
                    <path d="M314.071,67.053 C314.071,83.105 301.059,96.122 285.002,96.122 C268.945,96.122 255.934,83.104 255.934,67.053 C255.934,50.996 268.945,37.978 285.002,37.978 C301.059,37.978 314.071,50.997 314.071,67.053 L314.071,67.053 Z" id="Shape" stroke="#BC2169" stroke-width="10.029"></path>
                    <path d="M310.645,64.173 C310.645,80.225 297.633,93.242 281.576,93.242 C265.519,93.242 252.508,80.224 252.508,64.173 C252.508,48.116 265.519,35.098 281.576,35.098 C297.633,35.098 310.645,48.116 310.645,64.173 L310.645,64.173 Z" id="Shape" stroke="#BD2068" stroke-width="10.0278"></path>
                    <path d="M307.134,61.391 C307.134,77.443 294.122,90.46 278.065,90.46 C262.008,90.46 248.997,77.442 248.997,61.391 C248.997,45.334 262.008,32.316 278.065,32.316 C294.122,32.316 307.134,45.333 307.134,61.391 L307.134,61.391 Z" id="Shape" stroke="#BE2068" stroke-width="10.0266"></path>
                    <path d="M303.542,58.709 C303.542,74.761 290.53,87.778 274.473,87.778 C258.416,87.778 245.405,74.76 245.405,58.709 C245.405,42.652 258.416,29.634 274.473,29.634 C290.53,29.634 303.542,42.652 303.542,58.709 L303.542,58.709 Z" id="Shape" stroke="#BF1F67" stroke-width="10.0254"></path>
                    <path d="M299.87,56.131 C299.87,72.183 286.858,85.2 270.801,85.2 C254.744,85.2 241.733,72.182 241.733,56.131 C241.733,40.074 254.744,27.056 270.801,27.056 C286.858,27.056 299.87,40.074 299.87,56.131 L299.87,56.131 Z" id="Shape" stroke="#C01F66" stroke-width="10.0242"></path>
                    <path d="M296.122,53.658 C296.122,69.71 283.11,82.727 267.053,82.727 C250.996,82.727 237.985,69.709 237.985,53.658 C237.985,37.601 250.996,24.583 267.053,24.583 C283.11,24.583 296.122,37.601 296.122,53.658 L296.122,53.658 Z" id="Shape" stroke="#C11E66" stroke-width="10.023"></path>
                    <path d="M292.298,51.292 C292.298,67.344 279.286,80.361 263.229,80.361 C247.172,80.361 234.161,67.343 234.161,51.292 C234.161,35.235 247.172,22.217 263.229,22.217 C279.286,22.217 292.298,35.234 292.298,51.292 L292.298,51.292 Z" id="Shape" stroke="#C21E65" stroke-width="10.0218"></path>
                    <path d="M288.401,49.034 C288.401,65.086 275.389,78.103 259.332,78.103 C243.275,78.103 230.264,65.085 230.264,49.034 C230.264,32.977 243.275,19.959 259.332,19.959 C275.389,19.959 288.401,32.977 288.401,49.034 L288.401,49.034 Z" id="Shape" stroke="#C31D65" stroke-width="10.0206"></path>
                    <path d="M284.435,46.889 C284.435,62.941 271.423,75.958 255.366,75.958 C239.309,75.958 226.298,62.94 226.298,46.889 C226.298,30.832 239.309,17.814 255.366,17.814 C271.423,17.814 284.435,30.832 284.435,46.889 L284.435,46.889 Z" id="Shape" stroke="#C41D64" stroke-width="10.0194"></path>
                    <path d="M280.398,44.856 C280.398,60.908 267.386,73.925 251.329,73.925 C235.272,73.925 222.261,60.907 222.261,44.856 C222.261,28.799 235.272,15.781 251.329,15.781 C267.386,15.781 280.398,28.799 280.398,44.856 L280.398,44.856 Z" id="Shape" stroke="#C51C63" stroke-width="10.0181"></path>
                    <path d="M276.296,42.94 C276.296,58.992 263.284,72.009 247.227,72.009 C231.17,72.009 218.159,58.991 218.159,42.94 C218.159,26.883 231.17,13.865 247.227,13.865 C263.284,13.865 276.296,26.883 276.296,42.94 L276.296,42.94 Z" id="Shape" stroke="#C61B63" stroke-width="10.0169"></path>
                    <path d="M272.129,41.141 C272.129,57.193 259.117,70.21 243.06,70.21 C227.003,70.21 213.992,57.192 213.992,41.141 C213.992,25.084 227.003,12.066 243.06,12.066 C259.117,12.066 272.129,25.084 272.129,41.141 L272.129,41.141 Z" id="Shape" stroke="#C71B62" stroke-width="10.0157"></path>
                    <path d="M267.899,39.462 C267.899,55.514 254.887,68.531 238.83,68.531 C222.773,68.531 209.762,55.513 209.762,39.462 C209.762,23.405 222.773,10.387 238.83,10.387 C254.887,10.387 267.899,23.405 267.899,39.462 L267.899,39.462 Z" id="Shape" stroke="#C81A61" stroke-width="10.0145"></path>
                    <path d="M263.61,37.905 C263.61,53.957 250.598,66.974 234.541,66.974 C218.484,66.974 205.473,53.956 205.473,37.905 C205.473,21.848 218.484,8.83 234.541,8.83 C250.598,8.83 263.61,21.848 263.61,37.905 L263.61,37.905 Z" id="Shape" stroke="#C91A61" stroke-width="10.0133"></path>
                    <path d="M259.263,36.473 C259.263,52.525 246.251,65.542 230.194,65.542 C214.137,65.542 201.126,52.524 201.126,36.473 C201.126,20.416 214.137,7.398 230.194,7.398 C246.251,7.398 259.263,20.416 259.263,36.473 L259.263,36.473 Z" id="Shape" stroke="#CA1960" stroke-width="10.0121"></path>
                    <path d="M254.859,35.167 C254.859,51.219 241.847,64.236 225.79,64.236 C209.733,64.236 196.722,51.218 196.722,35.167 C196.722,19.11 209.733,6.092 225.79,6.092 C241.847,6.092 254.859,19.109 254.859,35.167 L254.859,35.167 Z" id="Shape" stroke="#CB1960" stroke-width="10.0109"></path>
                    <path d="M250.402,33.988 C250.402,50.04 237.39,63.057 221.333,63.057 C205.276,63.057 192.265,50.039 192.265,33.988 C192.265,17.931 205.276,4.913 221.333,4.913 C237.39,4.913 250.402,17.932 250.402,33.988 L250.402,33.988 Z" id="Shape" stroke="#CC185F" stroke-width="10.0097"></path>
                    <path d="M245.895,32.941 C245.895,48.993 232.883,62.01 216.826,62.01 C200.769,62.01 187.758,48.992 187.758,32.941 C187.758,16.884 200.769,3.866 216.826,3.866 C232.883,3.866 245.895,16.884 245.895,32.941 L245.895,32.941 Z" id="Shape" stroke="#CD185E" stroke-width="10.0085"></path>
                    <path d="M241.336,32.026 C241.336,48.078 228.324,61.095 212.267,61.095 C196.21,61.095 183.199,48.077 183.199,32.026 C183.199,15.969 196.21,2.951 212.267,2.951 C228.324,2.951 241.336,15.969 241.336,32.026 L241.336,32.026 Z" id="Shape" stroke="#CE175E" stroke-width="10.0073"></path>
                    <path d="M236.73,31.247 C236.73,47.299 223.718,60.316 207.661,60.316 C191.604,60.316 178.593,47.298 178.593,31.247 C178.593,15.19 191.603,2.172 207.661,2.172 C223.719,2.172 236.73,15.189 236.73,31.247 L236.73,31.247 Z" id="Shape" stroke="#CF175D" stroke-width="10.0061"></path>
                    <path d="M232.08,30.604 C232.08,46.656 219.068,59.673 203.011,59.673 C186.954,59.673 173.943,46.655 173.943,30.604 C173.943,14.547 186.954,1.529 203.011,1.529 C219.068,1.529 232.08,14.546 232.08,30.604 L232.08,30.604 Z" id="Shape" stroke="#D0165C" stroke-width="10.0048"></path>
                    <path d="M227.387,30.1 C227.387,46.152 214.375,59.169 198.318,59.169 C182.261,59.169 169.25,46.151 169.25,30.1 C169.25,14.043 182.261,1.025 198.318,1.025 C214.375,1.025 227.387,14.043 227.387,30.1 L227.387,30.1 Z" id="Shape" stroke="#D1165C" stroke-width="10.0036"></path>
                    <path d="M222.652,29.737 C222.652,45.789 209.64,58.806 193.583,58.806 C177.526,58.806 164.515,45.788 164.515,29.737 C164.515,13.68 177.526,0.663 193.583,0.663 C209.64,0.663 222.652,13.681 222.652,29.737 L222.652,29.737 Z" id="Shape" stroke="#D2155B" stroke-width="10.0024"></path>
                    <path d="M217.879,29.519 C217.879,45.571 204.867,58.588 188.81,58.588 C172.753,58.588 159.742,45.57 159.742,29.519 C159.742,13.462 172.753,0.444 188.81,0.444 C204.867,0.444 217.879,13.461 217.879,29.519 L217.879,29.519 Z" id="Shape" stroke="#D3155B" stroke-width="10.0012"></path>
                    <path d="M213.069,29.442 C213.069,45.494 200.057,58.511 184,58.511 C167.943,58.511 154.932,45.493 154.932,29.442 C154.932,13.385 167.943,0.367 184,0.367 C200.057,0.367 213.069,13.385 213.069,29.442 L213.069,29.442 Z" id="Shape" stroke="#D4145A" stroke-width="10"></path>
                </g>
                <path d="M283.862,283.25 L227.195,283.25 L219.149,323.296 C218.586,326.083 216.54,327.48 212.976,327.48 C208.035,327.48 205.701,325.526 205.976,321.624 C206.183,318.906 209.769,300.124 216.747,265.262 C223.149,233.48 227.518,212.67 229.816,202.842 C233.103,186.951 241.804,179.003 255.954,179.003 C270.115,179.003 278.816,186.951 282.092,202.842 C286.414,223.273 290.736,243.693 295.058,264.113 C302.379,298.975 306.046,317.758 306.046,320.475 C306.046,325.216 303.564,327.584 298.621,327.584 C294.713,327.584 292.414,325.877 291.725,322.458 L283.862,283.25 L283.862,283.25 Z M229.609,269.451 L281.149,269.451 L269.54,210.576 C267.253,198.731 262.472,192.8 255.23,192.8 C250.908,192.8 247.632,194.438 245.402,197.714 C243.586,200.438 242.057,205.07 240.804,211.622 L229.609,269.451 L229.609,269.451 Z" id="Shape" fill="#111D26"></path>
            </g>
        </g>
    </g>
</svg>