<?xml version="1.0" encoding="UTF-8" standalone="no"?><!DOCTYPE svg PUBLIC "-//W3C//DTD SVG 1.1//EN" "http://www.w3.org/Graphics/SVG/1.1/DTD/svg11.dtd"><svg width="23px" height="21px" version="1.1" xmlns="http://www.w3.org/2000/svg" xmlns:xlink="http://www.w3.org/1999/xlink" xml:space="preserve" xmlns:serif="http://www.serif.com/" style="fill-rule:evenodd;clip-rule:evenodd;stroke-linecap:round;stroke-linejoin:round;stroke-miterlimit:1.5;"><g><g><path d="M13.781,12.117l0,-2.178" style="fill:none;stroke:#1fef80;stroke-width:1px;"/><path d="M16.656,9.939l0,4.355" style="fill:none;stroke:#1fef80;stroke-width:1px;"/><path d="M19.53,14.294l0,-2.177" style="fill:none;stroke:#1fef80;stroke-width:1px;"/><path d="M13.781,9.939l2.875,0" style="fill:none;stroke:#1fef80;stroke-width:1px;"/><path d="M16.656,14.294l2.874,0" style="fill:none;stroke:#1fef80;stroke-width:1px;"/></g><ellipse cx="12.037" cy="10.497" rx="10" ry="9.997" style="fill:none;stroke:#1fef80;stroke-width:1px;"/><path d="M2.037,9.126l-1.537,2.526l3.074,0l-1.537,-2.526Z" style="fill:#1fef80;stroke:#1fef80;stroke-width:1px;"/><g><path d="M9.827,4.815l0,-2.81" style="fill:none;stroke:#1fef80;stroke-width:1px;"/><path d="M9.827,2.005l5.75,5.62" style="fill:none;stroke:#1fef80;stroke-width:1px;"/><path d="M15.577,7.625l0,-2.81" style="fill:none;stroke:#1fef80;stroke-width:1px;"/></g><path d="M4.557,8.864c0.922,-3.815 1.916,-3.809 2.874,0c0.888,3.596 1.854,4.074 2.875,0" style="fill:none;stroke:#1fef80;stroke-width:0.8px;"/><path d="M8.585,15.835c0.14,-0.579 0.75,-0.977 0.873,-1.379c0.578,-1.878 0.444,-1.931 1.113,0.02c0.134,0.391 0.758,0.811 0.888,1.359c0.158,0.639 0.841,1.06 1.004,1.494c0.624,1.665 0.409,1.847 0.971,-0.049c0.116,-0.391 0.757,-0.872 0.9,-1.445" style="fill:none;stroke:#1fef80;stroke-width:0.8px;"/></g></svg>