<?xml version="1.0" encoding="UTF-8" standalone="no"?>
<!-- Created with Inkscape (http://www.inkscape.org/) -->
<svg
   xmlns:svg="http://www.w3.org/2000/svg"
   xmlns="http://www.w3.org/2000/svg"
   version="1.0"
   width="315.67746"
   height="561.5"
   id="svg2">
  <defs
     id="defs4" />
  <g
     transform="translate(0.75,-59.25)"
     id="layer1" />
  <path
     d="M 0.75000542,20.75001 L 79.289824,20.75001 L 79.289824,120.75 L 157.82963,120.75 L 157.82963,20.75001 L 236.36945,20.75001 L 236.36945,120.75 L 314.90926,120.75"
     id="path3501"
     style="fill:none;fill-rule:evenodd;stroke:#1f49bd;stroke-width:1.5;stroke-linecap:butt;stroke-linejoin:miter;stroke-miterlimit:4;stroke-dasharray:none;stroke-opacity:1" />
  <path
     d="M 0.75,70.75 L 314.92746,70.75"
     id="path3503"
     style="fill:none;fill-rule:evenodd;stroke:#c0c0c0;stroke-width:1.5;stroke-linecap:butt;stroke-linejoin:miter;stroke-miterlimit:4;stroke-dasharray:none;stroke-opacity:1" />
  <path
     d="M 0.75,70.75 C 2.0755665,67.37447 3.4011331,63.99902 4.7266996,60.66607 C 6.0522662,57.33311 7.3778327,54.04298 8.7033992,50.83675 C 10.028966,47.63052 11.354532,44.50877 12.680099,41.51023 C 14.005665,38.51168 15.331232,35.637139 16.656798,32.921987 C 17.982365,30.206835 19.307932,27.652082 20.633498,25.288879 C 21.959065,22.925677 23.284631,20.755219 24.610198,18.803634 C 25.935764,16.85205 27.261331,15.120689 28.586897,13.629999 C 29.912464,12.139309 31.23803,10.890761 32.563597,9.8986045 C 33.889164,8.9064485 35.21473,8.1722375 36.540297,7.7036665 C 37.865863,7.2350945 39.19143,7.0337605 40.516996,7.1006055 C 41.842563,7.1674495 43.168129,7.5040755 44.493696,8.1046475 C 45.819262,8.7052205 47.144829,9.5713055 48.470395,10.690443 C 49.795962,11.80958 51.121529,13.183257 52.447095,14.7927 C 53.772662,16.402144 55.098228,18.248729 56.423795,20.307841 C 57.749361,22.366954 59.074928,24.639822 60.400494,27.096613 C 61.726061,29.553403 63.051627,32.195165 64.377194,34.987602 C 65.70276,37.780038 67.028327,40.72399 68.353894,43.78157 C 69.67946,46.83914 71.005027,50.01095 72.330593,53.25647 C 73.65616,56.50198 74.981726,59.82156 76.307293,63.17307 C 77.632859,66.52457 78.958426,69.90811 80.283992,73.28098 C 81.609559,76.65385 82.935125,80.01591 84.260692,83.32498 C 85.586259,86.63406 86.911825,89.88975 88.237392,93.05148 C 89.562958,96.21321 90.888525,99.28033 92.214091,102.21488 C 93.539658,105.14943 94.865224,107.95054 96.190791,110.58381 C 97.516357,113.21709 98.841924,115.68146 100.16749,117.94697 C 101.49306,120.21248 102.81862,122.27789 104.14419,124.11844 C 105.46976,125.95898 106.79532,127.57328 108.12089,128.94238 C 109.44646,130.31149 110.77202,131.43391 112.09759,132.29701 C 113.42316,133.16011 114.74872,133.76232 116.07429,134.09763 C 117.39986,134.43293 118.72542,134.49972 120.05099,134.29875 C 121.37656,134.09779 122.70212,133.62747 124.02769,132.89532 C 125.35325,132.16316 126.67882,131.16761 128.00439,129.92275 C 129.32995,128.67789 130.65552,127.18225 131.98109,125.45612 C 133.30665,123.72998 134.63222,121.77201 135.95779,119.60819 C 137.28335,117.44437 138.60892,115.07351 139.93449,112.52663 C 141.26005,109.97975 142.58562,107.25586 143.91119,104.39024 C 145.23675,101.52461 146.56232,98.51647 147.88789,95.40445 C 149.21345,92.29243 150.53902,89.07599 151.86459,85.79615 C 153.19015,82.51632 154.51572,79.17279 155.84129,75.80795 C 157.16685,72.44312 158.49242,69.05692 159.81798,65.69204 C 161.14355,62.32717 162.46912,58.9838 163.79468,55.70385 C 165.12025,52.42388 166.44582,49.20778 167.77138,46.09555 C 169.09695,42.98333 170.42252,39.975673 171.74808,37.109764 C 173.07365,34.243856 174.39922,31.5206 175.72478,28.973371 C 177.05035,26.426141 178.37592,24.056043 179.70148,21.891808 C 181.02705,19.727573 182.35262,17.770477 183.67818,16.043882 C 185.00375,14.317287 186.32932,12.822607 187.65488,11.577247 C 188.98045,10.331888 190.30602,9.3373645 191.63158,8.6046845 C 192.95715,7.8720045 194.28271,7.4027485 195.60828,7.2012485 C 196.93385,6.9997475 198.25941,7.0676075 199.58498,7.4023745 C 200.91055,7.7371415 202.23611,8.3404035 203.56168,9.2029855 C 204.88725,10.065567 206.21281,11.189 207.53838,12.557616 C 208.86395,13.926233 210.18951,15.54147 211.51508,17.381565 C 212.84065,19.22166 214.16621,21.287918 215.49178,23.55303 C 216.81735,25.818142 218.14291,28.283249 219.46848,30.916186 C 220.79405,33.549123 222.11961,36.350837 223.44518,39.285119 C 224.77075,42.2194 226.09631,45.28698 227.42188,48.44852 C 228.74744,51.61006 230.07301,54.86605 231.39858,58.17502 C 232.72414,61.48398 234.04971,64.84617 235.37528,68.21902 C 236.70084,71.59187 238.02641,74.97537 239.35198,78.32693 C 240.67754,81.6785 242.00311,84.99787 243.32868,88.24353 C 244.65424,91.48919 245.97981,94.66063 247.30538,97.71843 C 248.63094,100.77624 249.95651,103.71966 251.28208,106.5124 C 252.60764,109.30514 253.93321,111.94623 255.25878,114.40339 C 256.58434,116.86055 257.90991,119.13262 259.23548,121.19216 C 260.56104,123.2517 261.88661,125.09738 263.21217,126.7073 C 264.53774,128.31721 265.86331,129.68991 267.18887,130.80956 C 268.51444,131.9292 269.84001,132.79425 271.16557,133.39535 C 272.49114,133.99645 273.81671,134.33201 275.14227,134.39939 C 276.46784,134.46678 277.79341,134.26437 279.11897,133.79633 C 280.44454,133.32829 281.77011,132.59304 283.09567,131.6014 C 284.42124,130.60975 285.74681,129.36021 287.07237,127.87 C 288.39794,126.37979 289.72351,124.64751 291.04907,122.69637 C 292.37464,120.74522 293.70021,118.57394 295.02577,116.21112 C 296.35134,113.8483 297.6769,111.29285 299.00247,108.57801 C 300.32804,105.86318 301.6536,102.98807 302.97917,99.98977 C 304.30474,96.99147 305.6303,93.86931 306.95587,90.66325 C 308.28144,87.45719 309.607,84.1668 310.93257,80.83393 C 312.25814,77.50106 313.5837,74.12553 314.90927,70.75"
     id="path3693"
     style="fill:none;fill-opacity:1;stroke:#bc1e47;stroke-width:1.5;stroke-miterlimit:4;stroke-dasharray:none;stroke-opacity:1" />
  <rect
     width="314.15952"
     height="140.00026"
     x="0.74986982"
     y="0.74986982"
     id="rect3717"
     style="fill:none;fill-opacity:1;stroke:#000000;stroke-width:1.49973965;stroke-miterlimit:4;stroke-dasharray:none;stroke-opacity:1" />
  <path
     d="M 0.75000542,160.75 L 79.289824,160.75 L 79.289824,260.74999 L 157.82963,260.74999 L 157.82963,160.75 L 236.36945,160.75 L 236.36945,260.74999 L 314.90926,260.74999"
     id="path3437"
     style="fill:none;fill-rule:evenodd;stroke:#1f49bd;stroke-width:1.5;stroke-linecap:butt;stroke-linejoin:miter;stroke-miterlimit:4;stroke-dasharray:none;stroke-opacity:1" />
  <path
     d="M 0.75,210.74999 L 314.92746,210.74999"
     id="path3439"
     style="fill:none;fill-rule:evenodd;stroke:#c0c0c0;stroke-width:1.5;stroke-linecap:butt;stroke-linejoin:miter;stroke-miterlimit:4;stroke-dasharray:none;stroke-opacity:1" />
  <path
     d="M 0.75,210.74999 C 2.0755665,203.99894 3.4011331,197.25121 4.7266996,190.91947 C 6.0522662,184.58772 7.3778327,178.67953 8.7033992,173.52128 C 10.028966,168.36303 11.354532,163.96242 12.680099,160.49477 C 14.005665,157.02712 15.331232,154.49865 16.656798,152.90212 C 17.982365,151.3056 19.307932,150.64452 20.633498,150.73774 C 21.959065,150.83096 23.284631,151.67867 24.610198,152.97245 C 25.935764,154.26623 27.261331,156.00316 28.586897,157.82165 C 29.912464,159.64014 31.23803,161.53508 32.563597,163.17653 C 33.889164,164.81799 35.21473,166.20009 36.540297,167.10112 C 37.865863,168.00214 39.19143,168.4171 40.516996,168.28351 C 41.842563,168.14993 43.168129,167.46511 44.493696,166.34001 C 45.819262,165.21491 47.144829,163.65005 48.470395,161.90384 C 49.795962,160.15764 51.121529,158.23402 52.447095,156.47868 C 53.772662,154.72333 55.098228,153.143 56.423795,152.08968 C 57.749361,151.03636 59.074928,150.5184 60.400494,150.81054 C 61.726061,151.10268 63.051627,152.21325 64.377194,154.27249 C 65.70276,156.33172 67.028327,159.34625 68.353894,163.26589 C 69.67946,167.18552 71.005027,172.01391 72.330593,177.52413 C 73.65616,183.03436 74.981726,189.22638 76.307293,195.73923 C 77.632859,202.25208 78.958426,209.08211 80.283992,215.80661 C 81.609559,222.53111 82.935125,229.14366 84.260692,235.24577 C 85.586259,241.34789 86.911825,246.93179 88.237392,251.7039 C 89.562958,256.47602 90.888525,260.42887 92.214091,263.43134 C 93.539658,266.4338 94.865224,268.48026 96.190791,269.6238 C 97.516357,270.76735 98.841924,271.0053 100.16749,270.5563 C 101.49306,270.10729 102.81862,268.97198 104.14419,267.47974 C 105.46976,265.9875 106.79532,264.14191 108.12089,262.30462 C 109.44646,260.46734 110.77202,258.64378 112.09759,257.1433 C 113.42316,255.64281 114.74872,254.47119 116.07429,253.81382 C 117.39986,253.15645 118.72542,253.01788 120.05099,253.41696 C 121.37656,253.81604 122.70212,254.75472 124.02769,256.08125 C 125.35325,257.40778 126.67882,259.12078 128.00439,260.93326 C 129.32995,262.74575 130.65552,264.65301 131.98109,266.29977 C 133.30665,267.94652 134.63222,269.32549 135.95779,270.09648 C 137.28335,270.86746 138.60892,271.02198 139.93449,270.3161 C 141.26005,269.61022 142.58562,268.03589 143.91119,265.5061 C 145.23675,262.97631 146.56232,259.48507 147.88789,255.12869 C 149.21345,250.77231 150.53902,245.54805 151.86459,239.72169 C 153.19015,233.89533 154.51572,227.46787 155.84129,220.82333 C 157.16685,214.17879 158.49242,207.32162 159.81798,200.67665 C 161.14355,194.03169 162.46912,187.60583 163.79468,181.77829 C 165.12025,175.95075 166.44582,170.72937 167.77138,166.37129 C 169.09695,162.01321 170.42252,158.52556 171.74808,155.99388 C 173.07365,153.4622 174.39922,151.89147 175.72478,151.18388 C 177.05035,150.4763 178.37592,150.63372 179.70148,151.4035 C 181.02705,152.17329 182.35262,153.55398 183.67818,155.20021 C 185.00375,156.84644 186.32932,158.75404 187.65488,160.56672 C 188.98045,162.37939 190.30602,164.09144 191.63158,165.41873 C 192.95715,166.74601 194.28271,167.68289 195.60828,168.08302 C 196.93385,168.48315 198.25941,168.34253 199.58498,167.68616 C 200.91055,167.0298 202.23611,165.85654 203.56168,164.35668 C 204.88725,162.85683 206.21281,161.03263 207.53838,159.19536 C 208.86395,157.35808 210.18951,155.51319 211.51508,154.02024 C 212.84065,152.5273 214.16621,151.39404 215.49178,150.94368 C 216.81735,150.49332 218.14291,150.73441 219.46848,151.87618 C 220.79405,153.01794 222.11961,155.06805 223.44518,158.06864 C 224.77075,161.06923 226.09631,165.02557 227.42188,169.79608 C 228.74744,174.56658 230.07301,180.1531 231.39858,186.25421 C 232.72414,192.35531 234.04971,198.96908 235.37528,205.69337 C 236.70084,212.41765 238.02641,219.24727 239.35198,225.76075 C 240.67754,232.27423 242.00311,238.46428 243.32868,243.97585 C 244.65424,249.48741 245.97981,254.31267 247.30538,258.23409 C 248.63094,262.15552 249.95651,265.16639 251.28208,267.22749 C 252.60764,269.2886 253.93321,270.39569 255.25878,270.68944 C 256.58434,270.98319 257.90991,270.46257 259.23548,269.4103 C 260.56104,268.35803 261.88661,266.77631 263.21217,265.0213 C 264.53774,263.2663 265.86331,261.34268 267.18887,259.59614 C 268.51444,257.84959 269.84001,256.28592 271.16557,255.15997 C 272.49114,254.03401 273.81671,253.35112 275.14227,253.21647 C 276.46784,253.08181 277.79341,253.49878 279.11897,254.39886 C 280.44454,255.29895 281.77011,256.68249 283.09567,258.32345 C 284.42124,259.9644 285.74681,261.85968 287.07237,263.67833 C 288.39794,265.49698 289.72351,267.23287 291.04907,268.52753 C 292.37464,269.82219 293.70021,270.66753 295.02577,270.76224 C 296.35134,270.85695 297.6769,270.19254 299.00247,268.59786 C 300.32804,267.00317 301.6536,264.47102 302.97917,261.00521 C 304.30474,257.5394 305.6303,253.13546 306.95587,247.9787 C 308.28144,242.82193 309.607,236.91144 310.93257,230.58051 C 312.25814,224.24959 313.5837,217.50104 314.90927,210.74999"
     id="path3650"
     style="fill:none;fill-opacity:1;stroke:#bc1e47;stroke-width:1.5;stroke-miterlimit:4;stroke-dasharray:none;stroke-opacity:1" />
  <rect
     width="314.15952"
     height="140.00026"
     x="0.74986982"
     y="140.74988"
     id="rect3719"
     style="fill:none;fill-opacity:1;stroke:#000000;stroke-width:1.49973965;stroke-miterlimit:4;stroke-dasharray:none;stroke-opacity:1" />
  <path
     d="M 0.75000542,300.75 L 79.289824,300.75 L 79.289824,400.74999 L 157.82963,400.74999 L 157.82963,300.75 L 236.36945,300.75 L 236.36945,400.74999 L 314.90926,400.74999"
     id="path3511"
     style="fill:none;fill-rule:evenodd;stroke:#1f49bd;stroke-width:1.5;stroke-linecap:butt;stroke-linejoin:miter;stroke-miterlimit:4;stroke-dasharray:none;stroke-opacity:1" />
  <path
     d="M 0.75,350.74999 L 314.92746,350.74999"
     id="path3513"
     style="fill:none;fill-rule:evenodd;stroke:#c0c0c0;stroke-width:1.5;stroke-linecap:butt;stroke-linejoin:miter;stroke-miterlimit:4;stroke-dasharray:none;stroke-opacity:1" />
  <path
     d="M 0.75,350.74999 C 2.0755665,340.62341 3.4011331,330.52296 4.7266996,321.82724 C 6.0522662,313.13153 7.3778327,305.88388 8.7033992,300.79141 C 10.028966,295.69893 11.354532,292.77569 12.680099,291.76409 C 14.005665,290.7525 15.331232,291.63193 16.656798,293.40832 C 17.982365,295.18471 19.307932,297.81761 20.633498,300.17713 C 21.959065,302.53666 23.284631,304.58831 24.610198,305.6822 C 25.935764,306.77608 27.261331,306.90466 28.586897,306.17698 C 29.912464,305.44929 31.23803,303.88845 32.563597,302.16494 C 33.889164,300.44143 35.21473,298.59351 36.540297,297.32948 C 37.865863,296.06545 39.19143,295.41387 40.516996,295.61399 C 41.842563,295.8141 43.168129,296.86608 44.493696,298.37325 C 45.819262,299.88041 47.144829,301.81374 48.470395,303.41923 C 49.795962,305.02472 51.121529,306.26207 52.447095,306.56711 C 53.772662,306.87215 55.098228,306.21924 56.423795,304.69895 C 57.749361,303.17865 59.074928,300.79819 60.400494,298.37614 C 61.726061,295.95409 63.051627,293.52959 64.377194,292.2557 C 65.70276,290.98181 67.028327,290.90944 68.353894,292.87661 C 69.67946,294.84379 71.005027,298.88532 72.330593,304.99506 C 73.65616,311.10481 74.981726,319.28206 76.307293,328.58675 C 77.632859,337.89144 78.958426,348.28782 80.283992,358.32161 C 81.609559,368.3554 82.935125,377.9759 84.260692,385.91946 C 85.586259,393.86302 86.911825,400.09196 88.237392,404.13297 C 89.562958,408.17397 90.888525,410.02197 92.214091,410.15938 C 93.539658,410.29679 94.865224,408.75124 96.190791,406.61457 C 97.516357,404.47791 98.841924,401.7916 100.16749,399.61507 C 101.49306,397.43855 102.81862,395.80103 104.14419,395.17033 C 105.46976,394.53964 106.79532,394.91519 108.12089,396.01165 C 109.44646,397.10811 110.77202,398.89654 112.09759,400.642 C 113.42316,402.38747 114.74872,404.05179 116.07429,405.00528 C 117.39986,405.95877 118.72542,406.17877 120.05099,405.58724 C 121.37656,404.9957 122.70212,403.60048 124.02769,401.92921 C 125.35325,400.25793 126.67882,398.34469 128.00439,396.95061 C 129.32995,395.55654 130.65552,394.72066 131.98109,394.87577 C 133.30665,395.03087 134.63222,396.19545 135.95779,398.08456 C 137.28335,399.97368 138.60892,402.57117 139.93449,404.92241 C 141.26005,407.27365 142.58562,409.33408 143.91119,409.9664 C 145.23675,410.59871 146.56232,409.75346 147.88789,406.76717 C 149.21345,403.78088 150.53902,398.62646 151.86459,391.55624 C 153.19015,384.48602 154.51572,375.51036 155.84129,365.75422 C 157.16685,355.99808 158.49242,345.50337 159.81798,335.74576 C 161.14355,325.98815 162.46912,317.01764 163.79468,309.94374 C 165.12025,302.86984 166.44582,297.72326 167.77138,294.73281 C 169.09695,291.74236 170.42252,290.9041 171.74808,291.53358 C 173.07365,292.16307 174.39922,294.2269 175.72478,296.57757 C 177.05035,298.92824 178.37592,301.52498 179.70148,303.41542 C 181.02705,305.30585 182.35262,306.46723 183.67818,306.62421 C 185.00375,306.7812 186.32932,305.94242 187.65488,304.54937 C 188.98045,303.15631 190.30602,301.24253 191.63158,299.57077 C 192.95715,297.89902 194.28271,296.5058 195.60828,295.91274 C 196.93385,295.31969 198.25941,295.54257 199.58498,296.4947 C 200.91055,297.44684 202.23611,299.11261 203.56168,300.85798 C 204.88725,302.60334 206.21281,304.39053 207.53838,305.48833 C 208.86395,306.58613 210.18951,306.95845 211.51508,306.32965 C 212.84065,305.70084 214.16621,304.06048 215.49178,301.88491 C 216.81735,299.70934 218.14291,297.02322 219.46848,294.88541 C 220.79405,292.74759 222.11961,291.20648 223.44518,291.3406 C 224.77075,291.47471 226.09631,293.33023 227.42188,297.36701 C 228.74744,301.40379 230.07301,307.64022 231.39858,315.58052 C 232.72414,323.52082 234.04971,333.14533 235.37528,343.17837 C 236.70084,353.21141 238.02641,363.60641 239.35198,372.91323 C 240.67754,382.22005 242.00311,390.39119 243.32868,396.50492 C 244.65424,402.61864 245.97981,406.65222 247.30538,408.62337 C 248.63094,410.59452 249.95651,410.51587 251.28208,409.24428 C 252.60764,407.97269 253.93321,405.54588 255.25878,403.12384 C 256.58434,400.7018 257.90991,398.32294 259.23548,396.80103 C 260.56104,395.27913 261.88661,394.62962 263.21217,394.93287 C 264.53774,395.23613 265.86331,396.47592 267.18887,398.08075 C 268.51444,399.68557 269.84001,401.61874 271.16557,403.12673 C 272.49114,404.63472 273.81671,405.68428 275.14227,405.88599 C 276.46784,406.08771 277.79341,405.43341 279.11897,404.1705 C 280.44454,402.90759 281.77011,401.05883 283.09567,399.33504 C 284.42124,397.61125 285.74681,396.05228 287.07237,395.323 C 288.39794,394.59372 289.72351,394.72569 291.04907,395.81778 C 292.37464,396.90987 293.70021,398.96382 295.02577,401.32285 C 296.35134,403.68187 297.6769,406.31354 299.00247,408.09166 C 300.32804,409.86978 301.6536,410.7438 302.97917,409.73589 C 304.30474,408.72797 305.6303,405.79689 306.95587,400.70857 C 308.28144,395.62026 309.607,388.36571 310.93257,379.67274 C 312.25814,370.97976 313.5837,360.87657 314.90927,350.74999"
     id="path3607"
     style="fill:none;fill-opacity:1;stroke:#bc1e47;stroke-width:1.5;stroke-miterlimit:4;stroke-dasharray:none;stroke-opacity:1" />
  <rect
     width="314.15952"
     height="140.00026"
     x="0.74986982"
     y="280.74988"
     id="rect3721"
     style="fill:none;fill-opacity:1;stroke:#000000;stroke-width:1.49973965;stroke-miterlimit:4;stroke-dasharray:none;stroke-opacity:1" />
  <path
     d="M 0.75000542,440.75001 L 79.289824,440.75001 L 79.289824,540.75 L 157.82963,540.75 L 157.82963,440.75001 L 236.36945,440.75001 L 236.36945,540.75 L 314.90926,540.75"
     id="path3521"
     style="fill:none;fill-rule:evenodd;stroke:#1f48bd;stroke-width:1.5;stroke-linecap:butt;stroke-linejoin:miter;stroke-miterlimit:4;stroke-dasharray:none;stroke-opacity:1" />
  <path
     d="M 0.75,490.75 L 314.92746,490.75"
     id="path3523"
     style="fill:none;fill-rule:evenodd;stroke:#c0c0c0;stroke-width:1.5;stroke-linecap:butt;stroke-linejoin:miter;stroke-miterlimit:4;stroke-dasharray:none;stroke-opacity:1" />
  <path
     d="M 0.75,490.75 C 2.0755665,477.24789 3.4011331,463.8551 4.7266996,453.66725 C 6.0522662,443.4794 7.3778327,436.62004 8.7033992,433.58539 C 10.028966,430.55075 11.354532,431.26273 12.680099,433.56053 C 14.005665,435.85833 15.331232,439.55971 16.656798,442.20076 C 17.982365,444.84181 19.307932,446.33153 20.633498,446.14523 C 21.959065,445.95894 23.284631,444.1791 24.610198,442.16014 C 25.935764,440.14118 27.261331,438.02938 28.586897,437.09859 C 29.912464,436.1678 31.23803,436.45999 32.563597,437.66997 C 33.889164,438.87994 35.21473,440.90879 36.540297,442.4384 C 37.865863,443.96801 39.19143,444.88695 40.516996,444.62062 C 41.842563,444.35429 43.168129,442.9164 44.493696,441.21801 C 45.819262,439.51962 47.144829,437.68366 48.470395,436.9248 C 49.795962,436.16593 51.121529,436.56452 52.447095,437.98718 C 53.772662,439.40984 55.098228,441.78553 56.423795,443.61654 C 57.749361,445.44755 59.074928,446.58037 60.400494,446.00021 C 61.726061,445.42006 63.051627,443.06951 64.377194,440.07087 C 65.70276,437.07223 67.028327,433.55189 68.353894,432.15406 C 69.67946,430.75623 71.005027,431.67894 72.330593,436.54182 C 73.65616,441.40471 74.981726,450.27573 76.307293,461.84434 C 77.632859,473.41294 78.958426,487.54081 80.283992,500.8207 C 81.609559,514.10058 82.935125,526.32256 84.260692,534.86881 C 85.586259,543.41505 86.911825,548.20985 88.237392,549.53698 C 89.562958,550.86411 90.888525,548.84416 92.214091,545.98228 C 93.539658,543.12041 94.865224,539.59325 96.190791,537.52181 C 97.516357,535.45038 98.841924,534.88208 100.16749,535.76245 C 101.49306,536.64282 102.81862,538.8573 104.14419,540.86089 C 105.46976,542.86447 106.79532,544.52368 108.12089,544.88956 C 109.44646,545.25544 110.77202,544.32545 112.09759,542.79146 C 113.42316,541.25748 114.74872,539.23753 116.07429,538.02554 C 117.39986,536.81356 118.72542,536.49844 120.05099,537.27405 C 121.37656,538.04966 122.70212,539.86614 124.02769,541.56765 C 125.35325,543.26916 126.67882,544.72727 128.00439,544.94452 C 129.32995,545.16178 130.65552,544.09141 131.98109,542.29669 C 133.30665,540.50196 134.63222,538.08811 135.95779,536.64401 C 137.28335,535.19992 138.60892,534.87182 139.93449,536.22936 C 141.26005,537.58691 142.58562,540.64221 143.91119,543.73021 C 145.23675,546.81821 146.56232,549.7771 147.88789,549.9531 C 149.21345,550.1291 150.53902,547.33923 151.86459,540.60591 C 153.19015,533.87259 154.51572,523.18089 155.84129,510.55998 C 157.16685,497.93906 158.49242,483.56439 159.81798,470.94002 C 161.14355,458.31566 162.46912,447.63483 163.79468,440.89409 C 165.12025,434.15336 166.44582,431.37637 167.77138,431.5469 C 169.09695,431.71742 170.42252,434.68204 171.74808,437.76979 C 173.07365,440.85754 174.39922,443.91007 175.72478,445.27064 C 177.05035,446.6312 178.37592,446.29816 179.70148,444.85599 C 181.02705,443.41381 182.35262,440.99922 183.67818,439.20331 C 185.00375,437.4074 186.32932,436.3405 187.65488,436.55548 C 188.98045,436.77045 190.30602,438.23117 191.63158,439.93235 C 192.95715,441.63353 194.28271,443.44843 195.60828,444.22595 C 196.93385,445.00348 198.25941,444.68491 199.58498,443.47446 C 200.91055,442.264 202.23611,440.24351 203.56168,438.70854 C 204.88725,437.17356 206.21281,436.24689 207.53838,436.61044 C 208.86395,436.97399 210.18951,438.63599 211.51508,440.63911 C 212.84065,442.64223 214.16621,444.85463 215.49178,445.73755 C 216.81735,446.62046 218.14291,446.04701 219.46848,443.97819 C 220.79405,441.90937 222.11961,438.38116 223.44518,435.51772 C 224.77075,432.65427 226.09631,430.64235 227.42188,431.96302 C 228.74744,433.28369 230.07301,438.09191 231.39858,446.63119 C 232.72414,455.17048 234.04971,467.40119 235.37528,480.6793 C 236.70084,493.95741 238.02641,508.08214 239.35198,519.65566 C 240.67754,531.22919 242.00311,540.08781 243.32868,544.95818 C 244.65424,549.82854 245.97981,550.7395 247.30538,549.34594 C 248.63094,547.95239 249.95651,544.4287 251.28208,541.42913 C 252.60764,538.42956 253.93321,536.08308 255.25878,535.49979 C 256.58434,534.91649 257.90991,536.05361 259.23548,537.88346 C 260.56104,539.71331 261.88661,542.0884 263.21217,543.51282 C 264.53774,544.93724 265.86331,545.33205 267.18887,544.5752 C 268.51444,543.81836 269.84001,541.98073 271.16557,540.28199 C 272.49114,538.58325 273.81671,537.14784 275.14227,536.87938 C 276.46784,536.61093 277.79341,537.53298 279.11897,539.0616 C 280.44454,540.59021 281.77011,542.61848 283.09567,543.83003 C 284.42124,545.04158 285.74681,545.33004 287.07237,544.40141 C 288.39794,543.47277 289.72351,541.35916 291.04907,539.33986 C 292.37464,537.32055 293.70021,535.54403 295.02577,535.35477 C 296.35134,535.1655 297.6769,536.66009 299.00247,539.29924 C 300.32804,541.93838 301.6536,545.63873 302.97917,547.93947 C 304.30474,550.24021 305.6303,550.94211 306.95587,547.91461 C 308.28144,544.88711 309.607,538.01448 310.93257,527.83275 C 312.25814,517.65101 313.5837,504.25211 314.90927,490.75"
     id="path3564"
     style="fill:none;fill-opacity:1;stroke:#bc1e47;stroke-width:1.5;stroke-miterlimit:4;stroke-dasharray:none;stroke-opacity:1" />
  <rect
     width="314.15952"
     height="140.00026"
     x="0.74986982"
     y="420.74988"
     id="rect3723"
     style="fill:none;fill-opacity:1;stroke:#000000;stroke-width:1.49973965;stroke-miterlimit:4;stroke-dasharray:none;stroke-opacity:1" />
</svg>
